<?xml version="1.0" encoding="UTF-8" standalone="no"?>
<!DOCTYPE svg PUBLIC "-//W3C//DTD SVG 20010904//EN"
"http://www.w3.org/TR/2001/REC-SVG-20010904/DTD/svg10.dtd">
<!-- Created with Inkscape (http://www.inkscape.org/) -->
<svg
   version="1.0"
   x="0"
   y="0"
   width="400.00000pt"
   height="200.00000pt"
   id="svg1"
   sodipodi:version="0.32"
   inkscape:version="0.38.1"
   sodipodi:docname="kdenlive-splash.svg"
   sodipodi:docbase="/home/danny/kde/kdenlive/splash/colour"
   xmlns="http://www.w3.org/2000/svg"
   xmlns:inkscape="http://www.inkscape.org/namespaces/inkscape"
   xmlns:sodipodi="http://sodipodi.sourceforge.net/DTD/sodipodi-0.dtd"
   xmlns:xlink="http://www.w3.org/1999/xlink">
  <sodipodi:namedview
     id="base"
     pagecolor="#e6e6e6"
     bordercolor="#666666"
     borderopacity="1.0"
     inkscape:pageopacity="1.0000000"
     inkscape:pageshadow="2"
     inkscape:zoom="1.4990565"
     inkscape:cx="332.36130"
     inkscape:cy="71.165491"
     inkscape:window-width="1016"
     inkscape:window-height="693"
     inkscape:window-x="0"
     inkscape:window-y="0"
     showguides="true"
     snaptoguides="true" />
  <defs
     id="defs3" />
  <rect
     style="fill:#ff9900;fill-rule:evenodd;stroke:#333333;stroke-width:3.1250000;fill-opacity:1.0000000;stroke-dasharray:none;stroke-opacity:1.0000000;"
     id="rect861"
     width="520.16095"
     height="42.948162"
     x="-10.179276"
     y="192.89847"
     rx="0.0000000"
     sodipodi:stroke-cmyk="(0.0000000 0.0000000 0.0000000 0.80000001)" />
  <path
     d="M 281.7015 511.7999 L 281.7015 511.7999 z "
     transform="matrix(0.474916,0.000000,0.000000,0.474916,35.71012,-30.18600)"
     style="font-size:12.000000;fill:none;fill-rule:evenodd;stroke:#000000;stroke-width:4.5344071;stroke-linecap:round;"
     id="path606" />
  <path
     d="M 431.3052 168.4124 L 467.8105 189.4927 L 456.5654 217.3366 L 420.3860 193.7739 "
     style="font-size:12.000000;fill:#d52800;fill-rule:evenodd;stroke:#333333;stroke-width:3.7225056;stroke-linecap:round;stroke-linejoin:round;fill-opacity:1.0000000;"
     id="path575"
     transform="matrix(0.503693,0.000000,0.000000,0.503693,-171.8419,-34.04535)"
     sodipodi:stroke-cmyk="(0.0000000 0.0000000 0.0000000 0.80000001)" />
  <path
     d="M 419.0445 193.7225 L 431.1673 168.5314 L 405.2466 191.0457 L 394.7075 212.6051 "
     style="font-size:12.000000;fill:#d52800;fill-rule:evenodd;stroke:#333333;stroke-width:3.7225056;stroke-linecap:round;stroke-linejoin:round;fill-opacity:1.0000000;"
     id="path573"
     transform="matrix(0.503693,0.000000,0.000000,0.503693,-171.8419,-34.04535)"
     sodipodi:nodetypes="cccc"
     sodipodi:stroke-cmyk="(0.0000000 0.0000000 0.0000000 0.80000001)" />
  <path
     d="M 360.36725 291.7361 L 371.5836 271.5497 L 414.3042 263.5133 L 404.5757 285.9308 "
     style="font-size:12.000000;fill:#d52800;fill-rule:evenodd;stroke:#333333;stroke-width:3.7225056;stroke-linecap:round;stroke-linejoin:round;fill-opacity:1.0000000;"
     id="path574"
     transform="matrix(0.503693,0.000000,0.000000,0.503693,-171.8419,-34.04535)"
     sodipodi:nodetypes="cccc"
     sodipodi:stroke-cmyk="(0.0000000 0.0000000 0.0000000 0.80000001)" />
  <path
     d="M 633.65847,408.50565 L 644.75930,380.17310 L 600.62480,338.38000 L 586.41990,365.52681 L 633.65847,408.50565 z "
     style="font-size:12.000000;fill:#d52800;fill-rule:evenodd;stroke:#333333;stroke-width:3.7225056;stroke-linecap:round;stroke-linejoin:round;fill-opacity:1.0000000;"
     id="path576"
     transform="matrix(0.503693,0.000000,0.000000,0.503693,-171.8419,-34.04535)"
     sodipodi:stroke-cmyk="(0.0000000 0.0000000 0.0000000 0.80000001)"
     sodipodi:nodetypes="ccccc" />
  <path
     d="M 49.726808,99.039340 C 42.057024,104.15253 63.652660,195.74811 130.55029,136.52026 L 124.15878,149.35491 C 69.902181,199.77675 26.007300,133.41135 49.726808,99.039340 z "
     style="font-size:12.000000;fill:#d53800;fill-rule:evenodd;stroke:none;stroke-width:1.8750000;stroke-linecap:round;stroke-linejoin:round;fill-opacity:1.0000000;"
     id="path577"
     sodipodi:nodetypes="cccc" />
  <path
     d="M 49.726810,99.039340 C 42.057020,104.15253 63.652660,195.74811 130.55029,136.52026 L 124.15878,149.35491"
     style="font-size:12.000000;fill:none;fill-rule:evenodd;stroke:#333333;stroke-width:1.8750000;stroke-linecap:round;stroke-linejoin:round;stroke-dasharray:none;"
     id="path898"
     sodipodi:nodetypes="ccc"
     sodipodi:stroke-cmyk="(0.0000000 0.0000000 0.0000000 0.80000001)" />
  <path
     d="M 542.00650,421.58220 L 532.97560,469.33692 L 547.08220,443.57690 L 551.31190,417.35240 L 542.00650,421.58220 z "
     style="font-size:12.000000;fill:#cd3c00;fill-rule:evenodd;stroke:#333333;stroke-width:3.7225056;stroke-linecap:round;stroke-linejoin:round;fill-opacity:1.0000000;"
     id="path578"
     transform="matrix(0.503693,0.000000,0.000000,0.503693,-171.8419,-34.04535)"
     sodipodi:stroke-cmyk="(0.0000000 0.0000000 0.0000000 0.80000001)"
     sodipodi:nodetypes="ccccc" />
  <path
     d="M 388.2173 408.7229 L 399.5826 383.3007 L 416.0324 363.2618 L 420.5188 371.6360 L 388.2173 408.7229 z "
     style="font-size:12.000000;fill:#cd3c00;fill-rule:evenodd;stroke:#333333;stroke-width:3.7225056;stroke-linecap:round;stroke-linejoin:round;fill-opacity:1.0000000;"
     id="path616"
     transform="matrix(0.503693,0.000000,0.000000,0.503693,-171.8419,-34.04535)"
     sodipodi:stroke-cmyk="(0.0000000 0.0000000 0.0000000 0.80000001)" />
  <path
     d="M 479.19059,185.29120 L 479.28770,209.45714 L 469.14310,235.01018 L 468.95560,211.59640"
     style="font-size:12.000000;fill:#d53800;fill-rule:evenodd;stroke:#333333;stroke-width:3.7225056;stroke-linecap:round;stroke-linejoin:round;stroke-dasharray:none;fill-opacity:1.0000000;"
     id="path586"
     transform="matrix(0.503693,0.000000,0.000000,0.503693,-171.8419,-34.04535)"
     sodipodi:nodetypes="cccc"
     sodipodi:stroke-cmyk="(0.0000000 0.0000000 0.0000000 0.80000001)" />
  <path
     d="M 467.4908 190.0378 L 479.1112 184.9763 L 468.6358 211.2732 L 456.9715 216.5329 L 467.4908 190.0378 z "
     style="font-size:12.000000;fill:#cd3c00;fill-rule:evenodd;stroke:#333333;stroke-width:3.7225056;stroke-linecap:round;stroke-linejoin:round;fill-opacity:1.0000000;"
     id="path617"
     transform="matrix(0.503693,0.000000,0.000000,0.503693,-171.8419,-34.04535)"
     sodipodi:stroke-cmyk="(0.0000000 0.0000000 0.0000000 0.80000001)" />
  <path
     d="M 23.912964,172.03998 L 36.567507,185.29709 L 57.055735,171.43736 L 73.325837,178.66853 L 78.749205,202.41939 L 96.224440,202.46760 L 101.04524,177.88942 L 117.31534,171.43736 L 137.80357,184.69452 L 147.44512,171.43736 L 124.19348,149.49431 C 64.597334,204.15592 13.097107,119.90903 64.286909,84.663639 L 64.286859,72.009047 L 58.260923,75.022042 L 39.580448,63.146613 L 26.676278,73.743717 L 38.375260,93.702517 L 31.746708,109.97257 L 9.3000140,113.76472 L 8.8480500,131.06347 L 32.349327,137.08940 L 38.827224,152.90759 L 23.912964,172.03998 z "
     style="font-size:12.000000;fill:#ff6d00;fill-rule:evenodd;stroke:#333333;stroke-width:1.8750000;stroke-linecap:round;stroke-linejoin:round;stroke-dasharray:none;"
     id="path608"
     sodipodi:nodetypes="ccccccccccccccccccccccc"
     sodipodi:stroke-cmyk="(0.0000000 0.0000000 0.0000000 0.80000001)" />
  <path
     d="M 16.894132 28.856158 C 19.056386 26.66469 19.158645 26.577031 20.268994 25.612785 C 25.309372 21.259076 41.379717 24.485998 35.462752 38.452968 L 30.467507 44.30912 "
     style="font-size:12.000000;fill:#666666;fill-rule:evenodd;stroke:#333333;stroke-width:0.55373424;stroke-linecap:round;stroke-linejoin:round;"
     id="path603"
     transform="matrix(3.386101,0.000000,0.000000,3.386101,6.257674,-0.773354)"
     sodipodi:stroke-cmyk="(0.0000000 0.0000000 0.0000000 0.80000001)" />
  <path
     d="M 47.254382 11.832254 L 56.483025 5.6448507 L 54.888983 4.6800434 L 45.995939 10.888415 "
     style="font-size:12.000000;fill:#505050;fill-rule:evenodd;stroke:#333333;stroke-width:0.55373424;stroke-linecap:round;stroke-linejoin:round;"
     id="path594"
     transform="matrix(3.386101,0.000000,0.000000,3.386101,6.257674,-0.773354)"
     sodipodi:stroke-cmyk="(0.0000000 0.0000000 0.0000000 0.80000001)" />
  <ellipse
     cx="466.2500"
     cy="321.1122"
     rx="76.25000"
     ry="76.25000"
     transform="matrix(0.457398,0.000000,0.000000,0.457398,-126.6463,-23.81891)"
     style="font-size:12.000000;fill:#7f7f7f;fill-rule:evenodd;stroke:#333333;stroke-width:4.0992746;"
     id="path642"
     sodipodi:stroke-cmyk="(0.0000000 0.0000000 0.0000000 0.80000001)" />
  <path
     d="M 56.462646 5.6569406 L 57.523962 20.703909 L 46.347472 29.053412 L 41.31837 32.924773 L 40.510661 19.900506 L 44.892266 16.906377 L 47.22866 11.856588 L 56.462646 5.6569406 z "
     style="font-size:12.000000;fill:#999999;fill-rule:evenodd;stroke:#333333;stroke-width:0.63597047;stroke-linecap:round;stroke-linejoin:round;"
     id="path645"
     transform="matrix(3.386101,0.000000,0.000000,3.386101,6.257674,-0.773354)"
     sodipodi:stroke-cmyk="(0.0000000 0.0000000 0.0000000 0.80000001)" />
  <path
     d="M 54.036895 22.697897 L 52.224855 21.326016 L 46.458368 25.65403 L 45.956413 28.723573 "
     style="font-size:12.000000;fill:#7f7f7f;fill-rule:evenodd;stroke:#333333;stroke-width:0.55373424;stroke-linecap:round;stroke-linejoin:round;"
     id="path646"
     transform="matrix(3.386101,0.000000,0.000000,3.386101,7.400069,-0.773354)"
     sodipodi:stroke-cmyk="(0.0000000 0.0000000 0.0000000 0.80000001)" />
  <path
     d="M 56.986411 15.523725 L 48.009454 21.669164 L 47.212433 11.811286 L 56.31524 5.7077822 "
     style="font-size:12.000000;fill:#7f7f7f;fill-rule:evenodd;stroke:#333333;stroke-width:0.55373424;stroke-linecap:round;stroke-linejoin:round;"
     id="path589"
     transform="matrix(3.386101,0.000000,0.000000,3.386101,6.257674,-0.773354)"
     sodipodi:stroke-cmyk="(0.0000000 0.0000000 0.0000000 0.80000001)" />
  <path
     d="M 40.568165,20.337716 L 40.437771,18.585947 L 43.856561,16.257815 L 45.908280,10.863688 L 47.212432,11.832254 L 45.268187,17.110459 L 40.568165,20.337716 z "
     style="font-size:12.000000;fill:#5b5b5b;fill-rule:evenodd;stroke:#333333;stroke-width:0.55373424;stroke-linecap:round;stroke-linejoin:round;"
     id="path590"
     transform="matrix(3.386101,0.000000,0.000000,3.386101,6.257674,-0.773354)"
     sodipodi:stroke-cmyk="(0.0000000 0.0000000 0.0000000 0.80000001)"
     sodipodi:nodetypes="ccccccc" />
  <path
     d="M 45.995939,10.976073 L 54.847047,4.7010112 L 48.051404,4.7219932 L 38.548200,11.507145 L 45.995939,10.976073 z "
     style="font-size:12.000000;fill:#7f7f7f;fill-rule:evenodd;stroke:#333333;stroke-width:0.55373424;stroke-linecap:round;stroke-linejoin:round;"
     id="path591"
     transform="matrix(3.386101,0.000000,0.000000,3.386101,6.257674,-0.773354)"
     sodipodi:stroke-cmyk="(0.0000000 0.0000000 0.0000000 0.80000001)"
     sodipodi:nodetypes="ccccc" />
  <path
     d="M 49.729346 10.343093 L 51.323375 16.467551 L 51.323375 16.467551 L 54.091975 14.873522 L 53.33689 7.931061 "
     style="font-size:12.000000;fill:#cdcdcd;fill-rule:evenodd;stroke:#333333;stroke-width:0.55373424;stroke-linecap:round;stroke-linejoin:round;"
     id="path592"
     transform="matrix(3.386101,0.000000,0.000000,3.386101,6.257674,-0.316393)"
     sodipodi:stroke-cmyk="(0.0000000 0.0000000 0.0000000 0.80000001)" />
  <path
     d="M 29.794386,15.478730 L 37.326154,15.387537 L 36.168191,17.228469 L 43.760710,16.713115 L 45.649448,11.800396 L 37.307813,12.465393 L 37.275266,11.540674 L 35.617063,11.593770 L 33.304497,13.575803 L 31.090346,13.520701 L 29.794386,15.478730 z "
     style="font-size:12.000000;fill:#666666;fill-rule:evenodd;stroke:#333333;stroke-width:0.52209592;stroke-linecap:round;stroke-linejoin:round;"
     id="path597"
     sodipodi:stroke-cmyk="(0.0000000 0.0000000 0.0000000 0.80000001)"
     sodipodi:nodetypes="ccccccccccc"
     transform="matrix(3.591294,0.000000,0.000000,3.591294,-2.314533,-5.965186)" />
  <path
     d="M 30.828928 24.569056 C 34.922058 26.553454 36.781574 31.145202 36.099743 36.785741 L 41.313938 32.917059 L 41.066011 28.8416 C 39.867485 23.69986 32.797841 22.260742 30.828928 24.569056 z "
     style="font-size:12.000000;fill:#7f7f7f;fill-rule:evenodd;stroke:#333333;stroke-width:0.55373424;stroke-linecap:round;stroke-linejoin:round;"
     id="path602"
     transform="matrix(3.386101,0.000000,0.000000,3.386101,6.257674,-0.773354)"
     sodipodi:stroke-cmyk="(0.0000000 0.0000000 0.0000000 0.80000001)" />
  <path
     d="M 21.262062 16.336315 L 23.61746 14.073892 L 24.578214 11.718508 C 25.569964 11.873475 27.832373 11.594552 29.134042 14.879693 L 27.057582 16.55326 L 21.262062 16.336315 z "
     style="font-size:12.000000;fill:#666666;fill-rule:evenodd;stroke:#333333;stroke-width:0.55373424;stroke-linecap:round;stroke-linejoin:round;"
     id="path604"
     transform="matrix(3.386101,0.000000,0.000000,3.386101,6.257674,-0.773354)"
     sodipodi:stroke-cmyk="(0.0000000 0.0000000 0.0000000 0.80000001)" />
  <path
     d="M 21.271179 16.343776 L 21.417057 20.631299 L 25.198094 20.768103 L 25.703051 16.525966 L 32.884126 16.639278 L 31.327657 21.994961 L 25.059734 21.949575 L 25.693065 16.520426 M 24.578256 11.718424 L 30.094838 6.852662 C 32.603379 6.8623115 33.972343 8.5813206 34.464718 10.168828 L 29.059273 14.897772 C 28.573686 13.202466 27.080008 11.704384 24.578256 11.718424 z M 25.703051 16.529711 L 25.744328 16.524396 L 21.271179 16.343776 "
     style="font-size:12.000000;fill:#b3b3b3;fill-rule:evenodd;stroke:#333333;stroke-width:0.55373424;stroke-linecap:round;stroke-linejoin:round;"
     id="path605"
     transform="matrix(3.386101,0.000000,0.000000,3.386101,6.257674,-0.773354)"
     sodipodi:stroke-cmyk="(0.0000000 0.0000000 0.0000000 0.80000001)" />
  <path
     d="M 40.440829 18.63505 L 43.908174 16.20327 L 34.34072 16.848789 L 31.059323 19.284328 "
     style="font-size:12.000000;fill:#7a7a7a;fill-rule:evenodd;stroke:#333333;stroke-width:0.55373424;stroke-linecap:round;stroke-linejoin:round;"
     id="path598"
     transform="matrix(3.386101,0.000000,0.000000,3.386101,6.257674,-0.773354)"
     sodipodi:stroke-cmyk="(0.0000000 0.0000000 0.0000000 0.80000001)" />
  <path
     d="M 40.41512 18.660773 L 31.055536 19.311607 L 30.873837 24.549828 C 34.076355 22.504335 39.970894 24.394314 41.065941 28.795162 L 40.41512 18.660773 z "
     style="font-size:12.000000;fill:#ababab;fill-rule:evenodd;stroke:#333333;stroke-width:0.55373424;stroke-linecap:round;stroke-linejoin:round;"
     id="path595"
     transform="matrix(3.386101,0.000000,0.000000,3.386101,6.257674,-0.773354)"
     sodipodi:stroke-cmyk="(0.0000000 0.0000000 0.0000000 0.80000001)" />
  <path
     d="M 27.128396 16.561843 L 29.191406 14.818107 L 34.138081 14.7962 L 31.721434 16.683878 L 27.128396 16.561843 z "
     style="font-size:12.000000;fill:#7a7a7a;fill-rule:evenodd;stroke:#333333;stroke-width:0.55373424;stroke-linecap:round;stroke-linejoin:round;"
     id="path607"
     transform="matrix(3.386101,0.000000,0.000000,3.386101,6.257674,-0.773354)"
     sodipodi:stroke-cmyk="(0.0000000 0.0000000 0.0000000 0.80000001)" />
  <path
     d="M 48.861706,3.2513167 L 50.115718,5.9322451 M 51.830043,4.6821893 L 50.156728,5.9788936 L 48.889702,5.9989219 L 47.939860,3.5510688 L 49.832040,2.1638586 L 51.871993,4.6821753"
     style="font-size:12.000000;fill:#6b6b6b;fill-rule:evenodd;stroke:#333333;stroke-width:0.55373424;stroke-linecap:round;stroke-linejoin:round;"
     id="path609"
     transform="matrix(3.386101,0.000000,0.000000,3.386101,6.257674,-0.773354)"
     sodipodi:stroke-cmyk="(0.0000000 0.0000000 0.0000000 0.80000001)"
     sodipodi:nodetypes="cccccccc" />
  <path
     d="M 36.510154 20.737191 L 38.989523 20.396276 L 38.803574 22.472736 L 36.572147 22.379776 L 36.510154 20.737191 z "
     style="font-size:12.000000;fill:#7f7f7f;fill-rule:evenodd;stroke:#333333;stroke-width:0.55373424;stroke-linecap:round;stroke-linejoin:round;"
     id="path596"
     transform="matrix(3.386101,0.000000,0.000000,3.386101,6.257674,-0.773354)"
     sodipodi:stroke-cmyk="(0.0000000 0.0000000 0.0000000 0.80000001)" />
  <path
     sodipodi:type="arc"
     style="font-size:12.000000;fill:#4c4c4c;fill-rule:evenodd;stroke:#333333;stroke-width:0.51249856;"
     id="path1298"
     sodipodi:cx="27.44174385"
     sodipodi:cy="37.23684692"
     sodipodi:rx="7.82764482"
     sodipodi:ry="7.82764482"
     d="M 35.269389 37.236847 A 7.827645 7.827645 0 1 0 19.614099,37.236847 A 7.82764 7.82764 0 1 0 35.2694 37.2368 L 27.441744 37.236847 z"
     transform="matrix(3.658547,0.000000,0.000000,3.658547,-13.92887,-13.05095)"
     sodipodi:fill-cmyk="(0 0 0 0.7)"
     sodipodi:stroke-cmyk="(0.0000000 0.0000000 0.0000000 0.80000001)" />
  <path
     d="M 26.711912 41.216056 C 28.231326 39.360622 28.392043 37.636648 28.508916 35.912702 L 30.525067 35.781214 C 30.130603 37.943453 29.692309 39.974233 27.763817 42.399449 L 26.711912 41.216056 z "
     style="font-size:12.000000;fill:#b3b3b3;fill-rule:evenodd;stroke:#333333;stroke-width:0.55373424;stroke-linecap:round;stroke-linejoin:round;"
     id="path644"
     transform="matrix(3.386101,0.000000,0.000000,3.386101,6.257674,-0.773354)"
     sodipodi:stroke-cmyk="(0.0000000 0.0000000 0.0000000 0.80000001)" />
  <path
     d="M 28.326376 19.300583 L 37.625875 12.152384 C 41.303587 12.896207 41.014342 15.623502 38.431662 18.10287 L 30.497704 22.751673 "
     style="font-size:12.000000;fill:#4c4c4c;fill-rule:evenodd;stroke:#333333;stroke-width:0.57340467;stroke-linecap:round;stroke-linejoin:round;"
     id="path600"
     transform="matrix(3.269942,0.000000,0.000000,3.269942,7.788023,1.951173)"
     sodipodi:stroke-cmyk="(0.0000000 0.0000000 0.0000000 0.80000001)" />
  <ellipse
     cx="496.7427"
     cy="207.8112"
     rx="15.46796"
     ry="15.46799"
     transform="matrix(0.425865,0.000000,0.000000,0.425865,-107.9834,-17.52268)"
     style="font-size:12.000000;fill:#4c4c4c;fill-rule:evenodd;stroke:#333333;stroke-width:4.4028039;stroke-linecap:round;stroke-linejoin:round;"
     id="path599"
     sodipodi:stroke-cmyk="(0.0000000 0.0000000 0.0000000 0.80000001)" />
  <path
     style="fill:#3f3f3f;fill-rule:evenodd;stroke:#333333;stroke-width:0.52209592;stroke-linecap:round;stroke-linejoin:round;"
     d="M 37.345216,11.521202 L 49.433105,3.5050229 L 47.079148,3.6958843 L 35.500222,11.648443 L 37.345216,11.521202 z "
     id="path922"
     sodipodi:nodetypes="ccccc"
     sodipodi:stroke-cmyk="(0.0000000 0.0000000 0.0000000 0.80000001)"
     transform="matrix(3.591294,0.000000,0.000000,3.591294,-2.314533,-5.965186)" />
  <g
     id="g904">
    <path
       style="font-size:12.000000;font-weight:900;fill:#ee2c08;stroke:#333333;stroke-width:3.1887755;stroke-linejoin:round;font-family:VAG Rounded Black SSi;stroke-dasharray:none;"
       d="M 300.43145,163.01748 L 275.01617,163.01748 C 275.01617,164.92619 275.89712,166.73213 277.65901,168.43529 C 279.42090,170.10909 282.29866,170.94598 286.29228,170.94598 C 288.34781,170.94598 290.05098,170.68170 291.40176,170.15313 C 292.75255,169.62457 294.41166,168.87577 296.37910,167.90672 C 298.37591,166.90832 299.81479,166.40912 300.69573,166.40912 C 302.34017,166.40912 303.73500,166.98173 304.88023,168.12696 C 306.02546,169.27219 306.59807,170.75512 306.59807,172.57574 C 306.59807,174.74874 305.51157,176.73086 303.33858,178.52212 C 301.19494,180.28401 298.41996,181.63479 295.01364,182.57447 C 291.60731,183.54351 288.09821,184.02803 284.48633,184.02803 C 280.75700,184.02803 277.38004,183.38200 274.35546,182.08995 C 271.36024,180.79789 268.76145,178.97728 266.55910,176.62809 C 264.38609,174.24953 262.72698,171.48924 261.58175,168.34720 C 260.43652,165.17579 259.86391,161.82820 259.86391,158.30442 C 259.86391,154.98618 260.46589,151.75605 261.66984,148.61401 C 262.87380,145.47197 264.57697,142.71168 266.77932,140.33313 C 268.98169,137.95457 271.60985,136.08990 274.66380,134.73912 C 277.71774,133.35897 280.99191,132.66889 284.48633,132.66889 C 288.97916,132.66889 292.95809,133.79944 296.42315,136.06054 C 299.88820,138.32163 302.56040,141.28748 304.43975,144.95809 C 306.34847,148.62869 307.30283,152.56359 307.30283,156.76276 C 307.30283,159.17068 306.75958,160.81511 305.67308,161.69605 C 304.58658,162.57700 302.83937,163.01748 300.43145,163.01748 z M 275.01617,153.23898 L 293.20769,153.23898 C 293.20769,152.12311 292.81127,150.88979 292.01842,149.53901 C 291.22557,148.15886 290.13907,147.01363 288.75893,146.10332 C 287.40814,145.16365 285.86648,144.69381 284.13396,144.69381 C 282.40143,144.69381 280.83041,145.16365 279.42090,146.10332 C 278.04075,147.04300 276.95425,148.18822 276.16140,149.53901 C 275.39791,150.86042 275.01617,152.09375 275.01617,153.23898 z M 255.50322,119.80709 L 255.50322,175.70310 C 255.50322,177.81736 254.84252,179.57926 253.52110,180.98877 C 252.19968,182.39828 250.51120,183.10304 248.45566,183.10304 C 246.84059,183.10304 245.47513,182.66256 244.35926,181.78161 C 243.27276,180.90067 242.45054,179.84354 241.89262,178.61021 C 240.30691,180.54829 238.54502,181.92844 236.60694,182.75066 C 234.69822,183.60224 232.42245,184.02803 229.77961,184.02803 C 225.75662,184.02803 222.08602,182.89748 218.76779,180.63639 C 215.47893,178.34593 212.86545,175.23326 210.92737,171.29836 C 209.01866,167.33411 208.06430,163.00280 208.06430,158.30442 C 208.06430,153.66477 209.01866,149.37750 210.92737,145.44261 C 212.86545,141.47835 215.49361,138.36568 218.81184,136.10459 C 222.13006,133.81413 225.78599,132.66889 229.77961,132.66889 C 232.53991,132.66889 234.78632,133.02127 236.51885,133.72603 C 238.28074,134.43079 239.91049,135.41451 241.40809,136.67720 L 241.40809,119.80709 C 241.40809,117.72219 242.06880,115.97498 243.39022,114.56546 C 244.74101,113.12659 246.42948,112.40715 248.45566,112.40715 C 250.48184,112.40715 252.15563,113.11190 253.47705,114.52142 C 254.82783,115.93093 255.50322,117.69282 255.50322,119.80709 z M 231.76174,146.32356 C 228.76652,146.32356 226.40265,147.46878 224.67013,149.75924 C 222.96696,152.04970 222.11538,154.89810 222.11538,158.30442 C 222.11538,160.47741 222.49712,162.50359 223.26061,164.38294 C 224.02410,166.23293 225.12528,167.70117 226.56416,168.78767 C 228.03240,169.87417 229.76493,170.41742 231.76174,170.41742 C 234.78632,170.41742 237.15019,169.27219 238.85335,166.98173 C 240.55651,164.66191 241.40809,161.76947 241.40809,158.30442 C 241.40809,154.86873 240.55651,152.02034 238.85335,149.75924 C 237.15019,147.46878 234.78632,146.32356 231.76174,146.32356 z M 164.85392,175.70310 L 164.85392,119.80709 C 164.85392,117.69282 165.51462,115.93093 166.83605,114.52142 C 168.15746,113.11190 169.83126,112.40715 171.85743,112.40715 C 173.91297,112.40715 175.60145,113.11190 176.92287,114.52142 C 178.24429,115.93093 178.90500,117.69282 178.90500,119.80709 L 178.90500,150.02353 L 190.35729,138.48314 C 192.14855,136.69189 193.54338,135.42919 194.54178,134.69508 C 195.56955,133.96095 196.83224,133.59389 198.32985,133.59389 C 199.65127,133.59389 200.82586,133.88754 201.85364,134.47484 C 202.91077,135.06214 203.71830,135.86967 204.27623,136.89743 C 204.86353,137.92521 205.15718,138.98234 205.15718,140.06884 C 205.15718,141.30217 204.81948,142.38866 204.14409,143.32834 C 203.49807,144.23865 202.19133,145.64816 200.22388,147.55688 L 192.64775,155.13301 L 204.45242,170.28528 C 205.42146,171.43050 206.21432,172.53169 206.83098,173.58883 C 207.47701,174.64596 207.80001,175.62968 207.80001,176.53999 C 207.80001,178.18442 207.19804,179.69672 205.99408,181.07686 C 204.79012,182.42765 203.07227,183.10304 200.84054,183.10304 C 199.25485,183.10304 197.96279,182.79470 196.96438,182.17804 C 195.96598,181.53201 194.70329,180.25464 193.17632,178.34593 L 179.08119,159.66988 L 178.90500,159.66988 L 178.90500,175.70310 C 178.90500,177.78799 178.24429,179.54989 176.92287,180.98877 C 175.63081,182.39828 173.94234,183.10304 171.85743,183.10304 C 169.80189,183.10304 168.11341,182.39828 166.79199,180.98877 C 165.49994,179.54989 164.85392,177.78799 164.85392,175.70310 z "
       id="path870"
       sodipodi:nodetypes="cccccccccccccccccccccccccccccccccccccccccccccccccccccccccccccccccccccccccccccccccccccccccccccc"
       sodipodi:stroke-cmyk="(0.0000000 0.0000000 0.0000000 0.80000001)"
       transform="matrix(0.980000,0.000000,0.000000,0.980000,5.948826,2.964352)" />
    <path
       style="font-size:12.000000;font-weight:900;fill:#ee7108;stroke:#333333;stroke-width:3.1887755;stroke-linejoin:round;font-family:VAG Rounded Black SSi;stroke-dasharray:none;"
       d="M 485.05762,163.01748 L 459.64234,163.01748 C 459.64234,164.92619 460.52329,166.73213 462.28518,168.43529 C 464.04707,170.10909 466.92482,170.94598 470.91844,170.94598 C 472.97398,170.94598 474.67714,170.68170 476.02793,170.15313 C 477.37871,169.62457 479.03782,168.87577 481.00527,167.90672 C 483.00208,166.90832 484.44096,166.40912 485.32190,166.40912 C 486.96634,166.40912 488.36117,166.98173 489.50640,168.12696 C 490.65162,169.27219 491.22424,170.75512 491.22424,172.57574 C 491.22424,174.74874 490.13774,176.73086 487.96474,178.52212 C 485.82111,180.28401 483.04613,181.63479 479.63981,182.57447 C 476.23348,183.54351 472.72438,184.02803 469.11250,184.02803 C 465.38317,184.02803 462.00621,183.38200 458.98163,182.08995 C 455.98641,180.79789 453.38762,178.97728 451.18526,176.62809 C 449.01226,174.24953 447.35315,171.48924 446.20792,168.34720 C 445.06269,165.17579 444.49007,161.82820 444.49007,158.30442 C 444.49007,154.98618 445.09205,151.75605 446.29601,148.61401 C 447.49997,145.47197 449.20313,142.71168 451.40549,140.33313 C 453.60786,137.95457 456.23601,136.08990 459.28996,134.73912 C 462.34390,133.35897 465.61808,132.66889 469.11250,132.66889 C 473.60533,132.66889 477.58426,133.79944 481.04932,136.06054 C 484.51437,138.32163 487.18657,141.28748 489.06592,144.95809 C 490.97464,148.62869 491.92900,152.56359 491.92900,156.76276 C 491.92900,159.17068 491.38575,160.81511 490.29924,161.69605 C 489.21275,162.57700 487.46554,163.01748 485.05762,163.01748 z M 459.64234,153.23898 L 477.83386,153.23898 C 477.83386,152.12311 477.43744,150.88979 476.64459,149.53901 C 475.85174,148.15886 474.76524,147.01363 473.38509,146.10332 C 472.03431,145.16365 470.49265,144.69381 468.76013,144.69381 C 467.02760,144.69381 465.45658,145.16365 464.04707,146.10332 C 462.66692,147.04300 461.58042,148.18822 460.78757,149.53901 C 460.02408,150.86042 459.64234,152.09375 459.64234,153.23898 z M 414.44983,177.33285 L 402.99753,148.56997 C 401.55866,144.98745 400.83922,142.34462 400.83922,140.64145 C 400.83922,139.37876 401.14754,138.20417 401.76421,137.11767 C 402.41023,136.03117 403.27649,135.17959 404.36300,134.56293 C 405.44950,133.91690 406.62409,133.59389 407.88678,133.59389 C 409.47248,133.59389 410.82327,133.97563 411.93913,134.73912 C 413.05500,135.47324 413.95062,136.86807 414.62601,138.92361 L 422.11405,160.46273 L 422.29024,160.46273 L 429.77828,138.92361 C 430.51240,136.83871 431.42271,135.42919 432.50921,134.69508 C 433.59571,133.96095 434.94649,133.59389 436.56156,133.59389 C 437.58933,133.59389 438.51432,133.78476 439.33654,134.16650 C 440.18812,134.54825 440.92224,135.04745 441.53890,135.66411 C 442.15556,136.25141 442.65477,136.98553 443.03651,137.86648 C 443.41825,138.71806 443.60913,139.64305 443.60913,140.64145 C 443.60913,142.28589 442.87501,144.92873 441.40676,148.56997 L 429.95447,177.33285 C 428.48623,181.17964 425.90212,183.10304 422.20215,183.10304 C 418.56091,183.10304 415.97680,181.17964 414.44983,177.33285 z M 381.87488,175.70310 L 381.87488,140.90574 C 381.87488,138.82084 382.52091,137.08831 383.81296,135.70816 C 385.13438,134.29865 386.82285,133.59389 388.87840,133.59389 C 390.96330,133.59389 392.65178,134.29865 393.94383,135.70816 C 395.26525,137.08831 395.92596,138.82084 395.92596,140.90574 L 395.92596,175.70310 C 395.92596,177.78799 395.26525,179.54989 393.94383,180.98877 C 392.65178,182.39828 390.96330,183.10304 388.87840,183.10304 C 386.82285,183.10304 385.13438,182.39828 383.81296,180.98877 C 382.52091,179.54989 381.87488,177.78799 381.87488,175.70310 z M 380.50942,120.86423 C 380.50942,118.57376 381.33163,116.59164 382.97606,114.91784 C 384.62050,113.24405 386.58794,112.40715 388.87840,112.40715 C 391.19822,112.40715 393.18035,113.22936 394.82478,114.87380 C 396.46922,116.51823 397.29143,118.51504 397.29143,120.86423 C 397.29143,123.30151 396.46922,125.32768 394.82478,126.94275 C 393.18035,128.55781 391.19822,129.36535 388.87840,129.36535 C 386.58794,129.36535 384.62050,128.54313 382.97606,126.89870 C 381.33163,125.25427 380.50942,123.24278 380.50942,120.86423 z M 361.83337,175.70310 L 361.83337,119.80709 C 361.83337,117.69282 362.49407,115.93093 363.81550,114.52142 C 365.13691,113.11190 366.81071,112.40715 368.83688,112.40715 C 370.89242,112.40715 372.58090,113.11190 373.90232,114.52142 C 375.22374,115.93093 375.88445,117.69282 375.88445,119.80709 L 375.88445,175.70310 C 375.88445,177.78799 375.22374,179.54989 373.90232,180.98877 C 372.61026,182.39828 370.92179,183.10304 368.83688,183.10304 C 366.78134,183.10304 365.09286,182.39828 363.77144,180.98877 C 362.47939,179.54989 361.83337,177.78799 361.83337,175.70310 z M 311.92779,175.70310 L 311.92779,140.90574 C 311.92779,138.82084 312.57382,137.08831 313.86587,135.70816 C 315.18730,134.29865 316.87577,133.59389 318.93131,133.59389 C 320.63447,133.59389 322.10271,134.04904 323.33604,134.95936 C 324.59873,135.84030 325.47967,136.88275 325.97887,138.08671 C 328.26934,134.47484 332.30700,132.66889 338.09188,132.66889 C 341.41011,132.66889 344.39064,133.27087 347.03348,134.47484 C 349.70568,135.67880 351.79058,137.52878 353.28819,140.02479 C 354.81517,142.49144 355.57865,145.60411 355.57865,149.36281 L 355.57865,175.70310 C 355.57865,177.81736 354.91794,179.57926 353.59653,180.98877 C 352.27510,182.39828 350.58663,183.10304 348.53108,183.10304 C 346.47555,183.10304 344.78707,182.38360 343.46565,180.94472 C 342.14423,179.50584 341.48352,177.75863 341.48352,175.70310 L 341.48352,153.23898 C 341.48352,150.68424 340.79345,148.62869 339.41330,147.07236 C 338.06251,145.48665 336.16848,144.69381 333.73120,144.69381 C 331.32328,144.69381 329.42925,145.48665 328.04910,147.07236 C 326.66895,148.65806 325.97887,150.71360 325.97887,153.23898 L 325.97887,175.70310 C 325.97887,177.78799 325.31817,179.54989 323.99675,180.98877 C 322.70470,182.39828 321.01621,183.10304 318.93131,183.10304 C 316.87577,183.10304 315.18730,182.39828 313.86587,180.98877 C 312.57382,179.54989 311.92779,177.78799 311.92779,175.70310 z "
       id="path872"
       sodipodi:nodetypes="cccccccccccccccccccccccccccccccccccccccccccccccccccccccccccccccccccccccccccccccccccccccccccccccccccccccccccccc"
       sodipodi:stroke-cmyk="(0.0000000 0.0000000 0.0000000 0.80000001)"
       transform="matrix(0.980000,0.000000,0.000000,0.980000,5.948826,2.964352)" />
  </g>
  <path
     style="font-size:12.000000;font-weight:900;stroke-width:1.0000000pt;font-family:VAG Rounded Black SSi;fill:#333333;fill-opacity:1.0000000;"
     d="M 477.06451,225.45741 L 477.06451,211.42369 C 477.06451,210.58285 477.32502,209.88413 477.84612,209.32752 C 478.37905,208.75906 479.06000,208.47484 479.88901,208.47484 C 480.57589,208.47484 481.16802,208.65840 481.66541,209.02553 C 482.17465,209.38081 482.52995,209.80123 482.73128,210.28678 C 483.95107,208.83012 485.25971,208.10179 486.65716,208.10179 C 487.42696,208.10179 488.10197,208.38009 488.68228,208.93670 C 489.27442,209.48147 489.57050,210.18612 489.57050,211.05064 C 489.57050,211.93886 489.29219,212.58429 488.73558,212.98695 C 488.19081,213.38960 487.28482,213.77448 486.01765,214.14162 C 484.72679,214.50874 483.85633,214.97062 483.40630,215.52723 C 482.95629,216.07199 482.73128,217.05494 482.73128,218.47608 L 482.73128,225.45741 C 482.73128,226.29825 482.46482,227.00881 481.93190,227.58911 C 481.41080,228.15757 480.72984,228.44180 479.88901,228.44180 C 479.06000,228.44180 478.37905,228.15757 477.84612,227.58911 C 477.32502,227.00881 477.06451,226.29825 477.06451,225.45741 z M 465.62436,208.10179 C 467.04548,208.10179 468.34226,208.36826 469.51471,208.90118 C 470.69900,209.42226 471.71155,210.15652 472.55240,211.10393 C 473.40508,212.05136 474.05642,213.14683 474.50646,214.39032 C 474.96831,215.62197 475.19925,216.97205 475.19925,218.44055 C 475.19925,220.34724 474.79660,222.09998 473.99127,223.69876 C 473.19783,225.28569 472.07274,226.53511 470.61608,227.44699 C 469.15941,228.35889 467.49552,228.81484 465.62436,228.81484 C 464.21508,228.81484 462.92418,228.55430 461.75177,228.03322 C 460.59116,227.51213 459.57861,226.77196 458.71407,225.81270 C 457.84956,224.84158 457.19228,223.72836 456.74225,222.47303 C 456.29221,221.20585 456.06723,219.86169 456.06723,218.44055 C 456.06723,216.55755 456.46987,214.82258 457.27517,213.23564 C 458.08050,211.63687 459.20555,210.38152 460.65037,209.46964 C 462.10703,208.55773 463.76504,208.10179 465.62436,208.10179 z M 465.62436,213.60869 C 464.41638,213.60869 463.46304,214.07056 462.76432,214.99430 C 462.07745,215.91803 461.73401,217.06679 461.73401,218.44055 C 461.73401,219.31692 461.88796,220.13407 462.19586,220.89201 C 462.50377,221.63810 462.94789,222.23024 463.52816,222.66844 C 464.12033,223.10662 464.81903,223.32571 465.62436,223.32571 C 466.84415,223.32571 467.79752,222.86383 468.48439,221.94010 C 469.17127,221.00451 469.51471,219.83801 469.51471,218.44055 C 469.51471,217.05494 469.17127,215.90620 468.48439,214.99430 C 467.79752,214.07056 466.84415,213.60869 465.62436,213.60869 z M 446.17254,225.45741 L 446.17254,213.96397 L 445.51528,213.96397 C 444.57969,213.96397 443.85137,213.74488 443.33027,213.30670 C 442.79735,212.86851 442.53089,212.20533 442.53089,211.31711 C 442.53089,210.41705 442.79735,209.75387 443.33027,209.32752 C 443.85137,208.90118 444.57969,208.68800 445.51528,208.68800 L 446.17254,208.68800 L 446.17254,204.93976 C 446.17254,204.08708 446.43309,203.37651 446.95419,202.80805 C 447.47526,202.23961 448.15622,201.95538 448.99704,201.95538 C 449.84973,201.95538 450.53664,202.23961 451.05770,202.80805 C 451.57881,203.37651 451.83932,204.08708 451.83932,204.93976 L 451.83932,208.68800 L 453.40258,208.68800 C 454.36186,208.68800 455.09609,208.90118 455.60534,209.32752 C 456.12644,209.75387 456.38695,210.41705 456.38695,211.31711 C 456.38695,212.20533 456.12644,212.86851 455.60534,213.30670 C 455.09609,213.74488 454.36186,213.96397 453.40258,213.96397 L 451.83932,213.96397 L 451.83932,225.45741 C 451.83932,226.29825 451.57285,227.00881 451.03993,227.58911 C 450.51887,228.15757 449.83791,228.44180 448.99704,228.44180 C 448.16807,228.44180 447.48712,228.15757 446.95419,227.58911 C 446.43309,227.00881 446.17254,226.29825 446.17254,225.45741 z M 436.52658,225.45741 L 436.52658,211.42369 C 436.52658,210.58285 436.78713,209.88413 437.30824,209.32752 C 437.84116,208.75906 438.52212,208.47484 439.35109,208.47484 C 440.19195,208.47484 440.87291,208.75906 441.39398,209.32752 C 441.92690,209.88413 442.19336,210.58285 442.19336,211.42369 L 442.19336,225.45741 C 442.19336,226.29825 441.92690,227.00881 441.39398,227.58911 C 440.87291,228.15757 440.19195,228.44180 439.35109,228.44180 C 438.52212,228.44180 437.84116,228.15757 437.30824,227.58911 C 436.78713,227.00881 436.52658,226.29825 436.52658,225.45741 z M 435.97590,203.34098 C 435.97590,202.41725 436.30751,201.61785 436.97070,200.94282 C 437.63390,200.26778 438.42738,199.93026 439.35109,199.93026 C 440.28669,199.93026 441.08607,200.26185 441.74927,200.92505 C 442.41247,201.58825 442.74405,202.39357 442.74405,203.34098 C 442.74405,204.32393 442.41247,205.14109 441.74927,205.79244 C 441.08607,206.44380 440.28669,206.76947 439.35109,206.76947 C 438.42738,206.76947 437.63390,206.43788 436.97070,205.77468 C 436.30751,205.11148 435.97590,204.30025 435.97590,203.34098 z M 434.11067,202.91464 L 434.11067,225.45741 C 434.11067,226.31009 433.84421,227.02066 433.31129,227.58911 C 432.77833,228.15757 432.09740,228.44180 431.26840,228.44180 C 430.61702,228.44180 430.06634,228.26416 429.61633,227.90887 C 429.17812,227.55359 428.84654,227.12725 428.62153,226.62984 C 427.98200,227.41148 427.27145,227.96808 426.48984,228.29968 C 425.72004,228.64312 424.80223,228.81484 423.73636,228.81484 C 422.11392,228.81484 420.63357,228.35889 419.29533,227.44699 C 417.96893,226.52326 416.91491,225.26793 416.13329,223.68099 C 415.36350,222.08221 414.97862,220.33540 414.97862,218.44055 C 414.97862,216.56939 415.36350,214.84034 416.13329,213.25341 C 416.91491,211.65463 417.97484,210.39929 419.31309,209.48740 C 420.65131,208.56366 422.12574,208.10179 423.73636,208.10179 C 424.84960,208.10179 425.75557,208.24391 426.45430,208.52814 C 427.16485,208.81235 427.82214,209.20909 428.42612,209.71832 L 428.42612,202.91464 C 428.42612,202.07381 428.69259,201.36916 429.22551,200.80070 C 429.77028,200.22041 430.45125,199.93026 431.26840,199.93026 C 432.08555,199.93026 432.76059,200.21449 433.29352,200.78294 C 433.83827,201.35140 434.11067,202.06196 434.11067,202.91464 z M 424.53575,213.60869 C 423.32780,213.60869 422.37443,214.07056 421.67574,214.99430 C 420.98884,215.91803 420.64539,217.06679 420.64539,218.44055 C 420.64539,219.31692 420.79934,220.13407 421.10728,220.89201 C 421.41519,221.63810 421.85928,222.23024 422.43958,222.66844 C 423.03173,223.10662 423.73045,223.32571 424.53575,223.32571 C 425.75557,223.32571 426.70891,222.86383 427.39579,221.94010 C 428.08269,221.00451 428.42612,219.83801 428.42612,218.44055 C 428.42612,217.05494 428.08269,215.90620 427.39579,214.99430 C 426.70891,214.07056 425.75557,213.60869 424.53575,213.60869 z M 399.00860,225.24424 L 399.00860,205.04635 C 399.00860,204.13445 399.29877,203.41204 399.87905,202.87911 C 400.47118,202.33434 401.16399,202.06196 401.95747,202.06196 L 410.98167,202.06196 C 411.91728,202.06196 412.63969,202.31066 413.14892,202.80805 C 413.67000,203.30546 413.93054,203.98049 413.93054,204.83318 C 413.93054,205.68586 413.67000,206.35498 413.14892,206.84053 C 412.62783,207.32609 411.90542,207.56886 410.98167,207.56886 L 404.90634,207.56886 L 404.90634,212.32966 L 410.46651,212.32966 C 411.39026,212.32966 412.11267,212.57245 412.63373,213.05800 C 413.15484,213.54356 413.41539,214.21268 413.41539,215.06535 C 413.41539,215.92988 413.15484,216.60491 412.63373,217.09047 C 412.11267,217.57603 411.39026,217.81881 410.46651,217.81881 L 404.90634,217.81881 L 404.90634,222.70395 L 411.19483,222.70395 C 412.11858,222.70395 412.84099,222.94674 413.36208,223.43229 C 413.88316,223.90600 414.14370,224.58105 414.14370,225.45741 C 414.14370,226.31009 413.88316,226.98513 413.36208,227.48252 C 412.84099,227.97993 412.11858,228.22863 411.19483,228.22863 L 401.95747,228.22863 C 401.16399,228.22863 400.47118,227.96216 399.87905,227.42924 C 399.29877,226.88446 399.00860,226.15614 399.00860,225.24424 z M 377.35404,208.10179 C 378.77518,208.10179 380.07197,208.36826 381.24441,208.90118 C 382.42868,209.42226 383.44125,210.15652 384.28208,211.10393 C 385.13476,212.05136 385.78610,213.14683 386.23614,214.39032 C 386.69803,215.62197 386.92896,216.97205 386.92896,218.44055 C 386.92896,220.34724 386.52631,222.09998 385.72099,223.69876 C 384.92752,225.28569 383.80246,226.53511 382.34579,227.44699 C 380.88912,228.35889 379.22520,228.81484 377.35404,228.81484 C 375.94476,228.81484 374.65390,228.55430 373.48145,228.03322 C 372.32087,227.51213 371.30829,226.77196 370.44379,225.81270 C 369.57925,224.84158 368.92196,223.72836 368.47196,222.47303 C 368.02193,221.20585 367.79691,219.86169 367.79691,218.44055 C 367.79691,216.55755 368.19956,214.82258 369.00489,213.23564 C 369.81018,211.63687 370.93526,210.38152 372.38007,209.46964 C 373.83675,208.55773 375.49472,208.10179 377.35404,208.10179 z M 377.35404,213.60869 C 376.14609,213.60869 375.19272,214.07056 374.49403,214.99430 C 373.80713,215.91803 373.46369,217.06679 373.46369,218.44055 C 373.46369,219.31692 373.61764,220.13407 373.92557,220.89201 C 374.23348,221.63810 374.67757,222.23024 375.25788,222.66844 C 375.85002,223.10662 376.54875,223.32571 377.35404,223.32571 C 378.57386,223.32571 379.52720,222.86383 380.21408,221.94010 C 380.90098,221.00451 381.24441,219.83801 381.24441,218.44055 C 381.24441,217.05494 380.90098,215.90620 380.21408,214.99430 C 379.52720,214.07056 378.57386,213.60869 377.35404,213.60869 z M 363.92432,220.34131 L 353.67438,220.34131 C 353.67438,221.11110 354.02967,221.83944 354.74022,222.52632 C 355.45081,223.20136 356.61140,223.53888 358.22202,223.53888 C 359.05103,223.53888 359.73789,223.43229 360.28267,223.21912 C 360.82742,223.00595 361.49656,222.70395 362.29000,222.31315 C 363.09533,221.91050 363.67563,221.70916 364.03090,221.70916 C 364.69408,221.70916 365.25663,221.94010 365.71849,222.40197 C 366.18037,222.86383 366.41131,223.46189 366.41131,224.19615 C 366.41131,225.07252 365.97313,225.87191 365.09677,226.59432 C 364.23223,227.30489 363.11309,227.84966 361.73930,228.22863 C 360.36555,228.61943 358.95033,228.81484 357.49367,228.81484 C 355.98965,228.81484 354.62772,228.55430 353.40792,228.03322 C 352.19995,227.51213 351.15187,226.77788 350.26366,225.83046 C 349.38730,224.87120 348.71816,223.75797 348.25630,222.49079 C 347.79441,221.21177 347.56349,219.86169 347.56349,218.44055 C 347.56349,217.10232 347.80627,215.79961 348.29184,214.53243 C 348.77737,213.26525 349.46427,212.15203 350.35246,211.19276 C 351.24067,210.23349 352.30060,209.48147 353.53226,208.93670 C 354.76391,208.38009 356.08439,208.10179 357.49367,208.10179 C 359.30563,208.10179 360.91033,208.55773 362.30776,209.46964 C 363.70522,210.38152 364.78292,211.57765 365.54086,213.05800 C 366.31065,214.53835 366.69553,216.12529 366.69553,217.81881 C 366.69553,218.78992 366.47643,219.45311 366.03825,219.80840 C 365.60007,220.16368 364.89542,220.34131 363.92432,220.34131 z M 353.67438,216.39767 L 361.01099,216.39767 C 361.01099,215.94764 360.85112,215.45024 360.53136,214.90548 C 360.21160,214.34886 359.77342,213.88700 359.21680,213.51987 C 358.67206,213.14090 358.05030,212.95142 357.35157,212.95142 C 356.65283,212.95142 356.01926,213.14090 355.45081,213.51987 C 354.89417,213.89884 354.45599,214.36071 354.13623,214.90548 C 353.82833,215.43841 353.67438,215.93580 353.67438,216.39767 z M 345.80483,202.91464 L 345.80483,225.45741 C 345.80483,226.31009 345.53836,227.02066 345.00544,227.58911 C 344.47252,228.15757 343.79156,228.44180 342.96255,228.44180 C 342.31121,228.44180 341.76052,228.26416 341.31049,227.90887 C 340.87231,227.55359 340.54072,227.12725 340.31570,226.62984 C 339.67619,227.41148 338.96563,227.96808 338.18399,228.29968 C 337.41423,228.64312 336.49639,228.81484 335.43055,228.81484 C 333.80807,228.81484 332.32772,228.35889 330.98950,227.44699 C 329.66311,226.52326 328.60910,225.26793 327.82748,223.68099 C 327.05768,222.08221 326.67281,220.33540 326.67281,218.44055 C 326.67281,216.56939 327.05768,214.84034 327.82748,213.25341 C 328.60910,211.65463 329.66902,210.39929 331.00728,209.48740 C 332.34549,208.56366 333.81992,208.10179 335.43055,208.10179 C 336.54377,208.10179 337.44976,208.24391 338.14845,208.52814 C 338.85904,208.81235 339.51632,209.20909 340.12027,209.71832 L 340.12027,202.91464 C 340.12027,202.07381 340.38677,201.36916 340.91969,200.80070 C 341.46444,200.22041 342.14540,199.93026 342.96255,199.93026 C 343.77973,199.93026 344.45474,200.21449 344.98768,200.78294 C 345.53245,201.35140 345.80483,202.06196 345.80483,202.91464 z M 336.22993,213.60869 C 335.02196,213.60869 334.06862,214.07056 333.36989,214.99430 C 332.68301,215.91803 332.33958,217.06679 332.33958,218.44055 C 332.33958,219.31692 332.49353,220.13407 332.80143,220.89201 C 333.10934,221.63810 333.55347,222.23024 334.13377,222.66844 C 334.72590,223.10662 335.42463,223.32571 336.22993,223.32571 C 337.44976,223.32571 338.40309,222.86383 339.08996,221.94010 C 339.77684,221.00451 340.12027,219.83801 340.12027,218.44055 C 340.12027,217.05494 339.77684,215.90620 339.08996,214.99430 C 338.40309,214.07056 337.44976,213.60869 336.22993,213.60869 z M 319.24737,225.45741 L 319.24737,211.42369 C 319.24737,210.58285 319.50792,209.88413 320.02898,209.32752 C 320.56191,208.75906 321.24286,208.47484 322.07187,208.47484 C 322.91270,208.47484 323.59366,208.75906 324.11476,209.32752 C 324.64768,209.88413 324.91414,210.58285 324.91414,211.42369 L 324.91414,225.45741 C 324.91414,226.29825 324.64768,227.00881 324.11476,227.58911 C 323.59366,228.15757 322.91270,228.44180 322.07187,228.44180 C 321.24286,228.44180 320.56191,228.15757 320.02898,227.58911 C 319.50792,227.00881 319.24737,226.29825 319.24737,225.45741 z M 318.69667,203.34098 C 318.69667,202.41725 319.02825,201.61785 319.69145,200.94282 C 320.35465,200.26778 321.14812,199.93026 322.07187,199.93026 C 323.00744,199.93026 323.80685,200.26185 324.47005,200.92505 C 325.13325,201.58825 325.46483,202.39357 325.46483,203.34098 C 325.46483,204.32393 325.13325,205.14109 324.47005,205.79244 C 323.80685,206.44380 323.00744,206.76947 322.07187,206.76947 C 321.14812,206.76947 320.35465,206.43788 319.69145,205.77468 C 319.02825,205.11148 318.69667,204.30025 318.69667,203.34098 z M 307.59404,217.88987 L 312.60354,204.54895 C 312.98251,203.62521 313.37334,202.94425 313.77599,202.50607 C 314.19049,202.06788 314.89512,201.84879 315.88994,201.84879 C 316.42286,201.84879 316.90839,201.98499 317.34660,202.25737 C 317.79661,202.51791 318.14599,202.87319 318.39468,203.32322 C 318.64338,203.76140 318.76774,204.24104 318.76774,204.76212 C 318.76774,205.15293 318.56049,205.86942 318.14599,206.91159 L 310.79161,225.27976 C 310.38893,226.32193 309.98038,227.10948 309.56588,227.64240 C 309.15137,228.17533 308.47040,228.44180 307.52299,228.44180 C 306.84796,228.44180 306.30910,228.29968 305.90645,228.01545 C 305.50380,227.71939 305.20181,227.38778 305.00047,227.02066 C 304.79913,226.65354 304.54452,226.07323 304.23662,225.27976 L 297.04211,206.91159 C 296.62761,205.88127 296.42036,205.16477 296.42036,204.76212 C 296.42036,204.24104 296.54472,203.76140 296.79342,203.32322 C 297.04211,202.87319 297.38555,202.51791 297.82373,202.25737 C 298.27376,201.98499 298.76524,201.84879 299.29816,201.84879 C 300.30479,201.84879 301.01538,202.07381 301.42988,202.52384 C 301.84435,202.97386 302.22332,203.64890 302.56680,204.54895 L 307.59404,217.88987 z M 275.54744,225.45741 L 275.54744,211.42369 C 275.54744,210.58285 275.80797,209.88413 276.32906,209.32752 C 276.86198,208.75906 277.54294,208.47484 278.37195,208.47484 C 279.05882,208.47484 279.65095,208.65840 280.14834,209.02553 C 280.65759,209.38081 281.01288,209.80123 281.21422,210.28678 C 282.43402,208.83012 283.74264,208.10179 285.14010,208.10179 C 285.90989,208.10179 286.58492,208.38009 287.16522,208.93670 C 287.75735,209.48147 288.05344,210.18612 288.05344,211.05064 C 288.05344,211.93886 287.77512,212.58429 287.21853,212.98695 C 286.67375,213.38960 285.76777,213.77448 284.50058,214.14162 C 283.20972,214.50874 282.33928,214.97062 281.88924,215.52723 C 281.43924,216.07199 281.21422,217.05494 281.21422,218.47608 L 281.21422,225.45741 C 281.21422,226.29825 280.94776,227.00881 280.41483,227.58911 C 279.89374,228.15757 279.21277,228.44180 278.37195,228.44180 C 277.54294,228.44180 276.86198,228.15757 276.32906,227.58911 C 275.80797,227.00881 275.54744,226.29825 275.54744,225.45741 z M 273.02493,211.42369 L 273.02493,225.45741 C 273.02493,226.31009 272.75845,227.02066 272.22551,227.58911 C 271.69259,228.15757 271.01163,228.44180 270.18266,228.44180 C 269.53128,228.44180 268.98060,228.26416 268.53056,227.90887 C 268.09238,227.55359 267.76080,227.12725 267.53579,226.62984 C 266.89626,227.41148 266.18571,227.96808 265.40407,228.29968 C 264.63430,228.64312 263.71647,228.81484 262.65062,228.81484 C 261.02815,228.81484 259.54781,228.35889 258.20959,227.44699 C 256.88319,226.52326 255.82917,225.26793 255.04755,223.68099 C 254.27777,222.08221 253.89288,220.33540 253.89288,218.44055 C 253.89288,216.56939 254.27777,214.84034 255.04755,213.25341 C 255.82917,211.65463 256.88911,210.39929 258.22735,209.48740 C 259.56557,208.56366 261.04001,208.10179 262.65062,208.10179 C 263.72832,208.10179 264.64613,208.26759 265.40407,208.59919 C 266.17386,208.93079 266.88441,209.49332 267.53579,210.28678 C 267.74895,209.80123 268.08056,209.38081 268.53056,209.02553 C 268.98060,208.65840 269.53128,208.47484 270.18266,208.47484 C 271.01163,208.47484 271.69259,208.75906 272.22551,209.32752 C 272.75845,209.88413 273.02493,210.58285 273.02493,211.42369 z M 263.45001,213.60869 C 262.24203,213.60869 261.28869,214.07056 260.58997,214.99430 C 259.90310,215.91803 259.55966,217.06679 259.55966,218.44055 C 259.55966,219.31692 259.71361,220.13407 260.02152,220.89201 C 260.32945,221.63810 260.77354,222.23024 261.35385,222.66844 C 261.94599,223.10662 262.64472,223.32571 263.45001,223.32571 C 264.66983,223.32571 265.62317,222.86383 266.31005,221.94010 C 266.99692,221.00451 267.34039,219.83801 267.34039,218.44055 C 267.34039,217.05494 266.99692,215.90620 266.31005,214.99430 C 265.62317,214.07056 264.66983,213.60869 263.45001,213.60869 z M 250.02027,220.34131 L 239.77035,220.34131 C 239.77035,221.11110 240.12562,221.83944 240.83619,222.52632 C 241.54675,223.20136 242.70737,223.53888 244.31799,223.53888 C 245.14696,223.53888 245.83387,223.43229 246.37861,223.21912 C 246.92339,223.00595 247.59249,222.70395 248.38597,222.31315 C 249.19130,221.91050 249.77157,221.70916 250.12687,221.70916 C 250.79006,221.70916 251.35260,221.94010 251.81446,222.40197 C 252.27635,222.86383 252.50728,223.46189 252.50728,224.19615 C 252.50728,225.07252 252.06910,225.87191 251.19271,226.59432 C 250.32820,227.30489 249.20906,227.84966 247.83527,228.22863 C 246.46154,228.61943 245.04630,228.81484 243.58964,228.81484 C 242.08562,228.81484 240.72369,228.55430 239.50387,228.03322 C 238.29592,227.51213 237.24781,226.77788 236.35963,225.83046 C 235.48323,224.87120 234.81413,223.75797 234.35227,222.49079 C 233.89038,221.21177 233.65946,219.86169 233.65946,218.44055 C 233.65946,217.10232 233.90224,215.79961 234.38777,214.53243 C 234.87334,213.26525 235.56021,212.15203 236.44843,211.19276 C 237.33664,210.23349 238.39657,209.48147 239.62823,208.93670 C 240.85988,208.38009 242.18036,208.10179 243.58964,208.10179 C 245.40160,208.10179 247.00628,208.55773 248.40373,209.46964 C 249.80119,210.38152 250.87889,211.57765 251.63683,213.05800 C 252.40659,214.53835 252.79150,216.12529 252.79150,217.81881 C 252.79150,218.78992 252.57240,219.45311 252.13422,219.80840 C 251.69604,220.16368 250.99140,220.34131 250.02027,220.34131 z M 239.77035,216.39767 L 247.10696,216.39767 C 247.10696,215.94764 246.94707,215.45024 246.62731,214.90548 C 246.30757,214.34886 245.86937,213.88700 245.31277,213.51987 C 244.76799,213.14090 244.14624,212.95142 243.44754,212.95142 C 242.74882,212.95142 242.11521,213.14090 241.54675,213.51987 C 240.99016,213.89884 240.55198,214.36071 240.23220,214.90548 C 239.92430,215.43841 239.77035,215.93580 239.77035,216.39767 z M 214.18989,225.45741 L 214.18989,211.42369 C 214.18989,210.58285 214.45044,209.88413 214.97152,209.32752 C 215.50444,208.75906 216.18541,208.47484 217.01441,208.47484 C 217.70128,208.47484 218.29343,208.65840 218.79082,209.02553 C 219.30005,209.38081 219.65534,209.80123 219.85669,210.28678 C 220.78040,208.83012 222.40878,208.10179 224.74181,208.10179 C 226.08006,208.10179 227.28209,208.34456 228.34797,208.83012 C 229.42567,209.31567 230.26650,210.06177 230.87049,211.06841 C 231.48629,212.06321 231.79422,213.31854 231.79422,214.83442 L 231.79422,225.45741 C 231.79422,226.31009 231.52777,227.02066 230.99481,227.58911 C 230.46189,228.15757 229.78093,228.44180 228.95196,228.44180 C 228.12295,228.44180 227.44198,228.15165 226.90906,227.57134 C 226.37615,226.99105 226.10968,226.28640 226.10968,225.45741 L 226.10968,216.39767 C 226.10968,215.36735 225.83137,214.53835 225.27477,213.91068 C 224.72999,213.27116 223.96611,212.95142 222.98319,212.95142 C 222.01205,212.95142 221.24821,213.27116 220.69160,213.91068 C 220.13497,214.55019 219.85669,215.37918 219.85669,216.39767 L 219.85669,225.45741 C 219.85669,226.29825 219.59022,227.00881 219.05727,227.58911 C 218.53621,228.15757 217.85525,228.44180 217.01441,228.44180 C 216.18541,228.44180 215.50444,228.15757 214.97152,227.58911 C 214.45044,227.00881 214.18989,226.29825 214.18989,225.45741 z M 206.00060,225.45741 L 206.00060,211.42369 C 206.00060,210.58285 206.26114,209.88413 206.78223,209.32752 C 207.31515,208.75906 207.99611,208.47484 208.82511,208.47484 C 209.66595,208.47484 210.34690,208.75906 210.86799,209.32752 C 211.40092,209.88413 211.66737,210.58285 211.66737,211.42369 L 211.66737,225.45741 C 211.66737,226.29825 211.40092,227.00881 210.86799,227.58911 C 210.34690,228.15757 209.66595,228.44180 208.82511,228.44180 C 207.99611,228.44180 207.31515,228.15757 206.78223,227.58911 C 206.26114,227.00881 206.00060,226.29825 206.00060,225.45741 z M 205.44991,203.34098 C 205.44991,202.41725 205.78151,201.61785 206.44471,200.94282 C 207.10790,200.26778 207.90137,199.93026 208.82511,199.93026 C 209.76069,199.93026 210.56008,200.26185 211.22328,200.92505 C 211.88647,201.58825 212.21807,202.39357 212.21807,203.34098 C 212.21807,204.32393 211.88647,205.14109 211.22328,205.79244 C 210.56008,206.44380 209.76069,206.76947 208.82511,206.76947 C 207.90137,206.76947 207.10790,206.43788 206.44471,205.77468 C 205.78151,205.11148 205.44991,204.30025 205.44991,203.34098 z M 190.06612,225.24424 L 190.06612,205.01082 C 190.06612,203.99234 190.33850,203.21072 190.88327,202.66594 C 191.42803,202.12117 192.13861,201.84879 193.01497,201.84879 C 193.90317,201.84879 194.61375,202.11525 195.14667,202.64819 C 195.69145,203.18111 195.96383,203.96866 195.96383,205.01082 L 195.96383,222.70395 L 202.28788,222.70395 C 203.21162,222.70395 203.93403,222.94674 204.45512,223.43229 C 204.97619,223.90600 205.23674,224.58105 205.23674,225.45741 C 205.23674,226.31009 204.97619,226.98513 204.45512,227.48252 C 203.93403,227.97993 203.21162,228.22863 202.28788,228.22863 L 193.01497,228.22863 C 192.22150,228.22863 191.52870,227.96216 190.93656,227.42924 C 190.35626,226.88446 190.06612,226.15614 190.06612,225.24424 z M 176.61861,215.56276 L 185.19872,215.56276 C 185.95666,215.56276 186.54288,215.78776 186.95737,216.23779 C 187.38372,216.67597 187.59689,217.25035 187.59689,217.96092 C 187.59689,218.69517 187.38372,219.28731 186.95737,219.73734 C 186.53104,220.18736 185.94482,220.41237 185.19872,220.41237 L 176.61861,220.41237 C 175.87252,220.41237 175.28038,220.19328 174.84220,219.75510 C 174.41586,219.30508 174.20268,218.70702 174.20268,217.96092 C 174.20268,217.23851 174.41586,216.65821 174.84220,216.22003 C 175.26853,215.78185 175.86068,215.56276 176.61861,215.56276 z M 154.23573,225.45741 L 154.23573,211.42369 C 154.23573,210.58285 154.49626,209.88413 155.01735,209.32752 C 155.55028,208.75906 156.23124,208.47484 157.06024,208.47484 C 157.74712,208.47484 158.33926,208.65840 158.83665,209.02553 C 159.34590,209.38081 159.70118,209.80123 159.90250,210.28678 C 160.82625,208.83012 162.45463,208.10179 164.78766,208.10179 C 166.12589,208.10179 167.32794,208.34456 168.39379,208.83012 C 169.47149,209.31567 170.31232,210.06177 170.91631,211.06841 C 171.53213,212.06321 171.84004,213.31854 171.84004,214.83442 L 171.84004,225.45741 C 171.84004,226.31009 171.57358,227.02066 171.04066,227.58911 C 170.50773,228.15757 169.82678,228.44180 168.99777,228.44180 C 168.16878,228.44180 167.48782,228.15165 166.95489,227.57134 C 166.42197,226.99105 166.15550,226.28640 166.15550,225.45741 L 166.15550,216.39767 C 166.15550,215.36735 165.87719,214.53835 165.32059,213.91068 C 164.77581,213.27116 164.01196,212.95142 163.02901,212.95142 C 162.05790,212.95142 161.29403,213.27116 160.73743,213.91068 C 160.18081,214.55019 159.90250,215.37918 159.90250,216.39767 L 159.90250,225.45741 C 159.90250,226.29825 159.63605,227.00881 159.10312,227.58911 C 158.58203,228.15757 157.90107,228.44180 157.06024,228.44180 C 156.23124,228.44180 155.55028,228.15757 155.01735,227.58911 C 154.49626,227.00881 154.23573,226.29825 154.23573,225.45741 z M 142.79559,208.10179 C 144.21671,208.10179 145.51351,208.36826 146.68594,208.90118 C 147.87022,209.42226 148.88278,210.15652 149.72362,211.10393 C 150.57630,212.05136 151.22765,213.14683 151.67768,214.39032 C 152.13955,215.62197 152.37049,216.97205 152.37049,218.44055 C 152.37049,220.34724 151.96783,222.09998 151.16252,223.69876 C 150.36906,225.28569 149.24398,226.53511 147.78733,227.44699 C 146.33066,228.35889 144.66675,228.81484 142.79559,228.81484 C 141.38628,228.81484 140.09542,228.55430 138.92299,228.03322 C 137.76240,227.51213 136.74984,226.77196 135.88531,225.81270 C 135.02079,224.84158 134.36351,223.72836 133.91348,222.47303 C 133.46345,221.20585 133.23845,219.86169 133.23845,218.44055 C 133.23845,216.55755 133.64110,214.82258 134.44641,213.23564 C 135.25171,211.63687 136.37679,210.38152 137.82161,209.46964 C 139.27828,208.55773 140.93627,208.10179 142.79559,208.10179 z M 142.79559,213.60869 C 141.58762,213.60869 140.63427,214.07056 139.93555,214.99430 C 139.24866,215.91803 138.90522,217.06679 138.90522,218.44055 C 138.90522,219.31692 139.05917,220.13407 139.36710,220.89201 C 139.67501,221.63810 140.11911,222.23024 140.69941,222.66844 C 141.29154,223.10662 141.99027,223.32571 142.79559,223.32571 C 144.01539,223.32571 144.96873,222.86383 145.65561,221.94010 C 146.34250,221.00451 146.68594,219.83801 146.68594,218.44055 C 146.68594,217.05494 146.34250,215.90620 145.65561,214.99430 C 144.96873,214.07056 144.01539,213.60869 142.79559,213.60869 z M 108.49292,225.27976 L 108.49292,205.01082 C 108.49292,203.99234 108.76530,203.21072 109.31007,202.66594 C 109.85484,202.12117 110.56541,201.84879 111.44177,201.84879 C 112.17603,201.84879 112.76817,202.03828 113.21820,202.41725 C 113.68007,202.79622 114.44393,203.67258 115.50978,205.04635 L 125.29785,217.42799 L 125.36890,217.42799 L 125.36890,205.01082 C 125.36890,203.99234 125.64129,203.21072 126.18606,202.66594 C 126.73083,202.12117 127.44139,201.84879 128.31776,201.84879 C 129.20597,201.84879 129.91654,202.11525 130.44946,202.64819 C 130.99423,203.18111 131.26662,203.96866 131.26662,205.01082 L 131.26662,225.27976 C 131.26662,226.31009 130.99423,227.09764 130.44946,227.64240 C 129.91654,228.17533 129.20597,228.44180 128.31776,228.44180 C 127.79668,228.44180 127.35257,228.35298 126.98545,228.17533 C 126.63016,227.98584 126.26895,227.68978 125.90183,227.28713 C 125.53471,226.88446 124.98401,226.20351 124.24977,225.24424 L 114.46169,212.88036 L 114.39063,212.88036 L 114.39063,225.27976 C 114.39063,226.31009 114.11825,227.09764 113.57347,227.64240 C 113.04055,228.17533 112.32999,228.44180 111.44177,228.44180 C 110.57725,228.44180 109.86668,228.16942 109.31007,227.62464 C 108.76530,227.06802 108.49292,226.28640 108.49292,225.27976 z "
     id="path871" />
</svg>
