<?xml version="1.0" encoding="UTF-8" standalone="no"?>
<!-- Created with Inkscape (http://www.inkscape.org/) -->

<svg
   xmlns:dc="http://purl.org/dc/elements/1.1/"
   xmlns:cc="http://creativecommons.org/ns#"
   xmlns:rdf="http://www.w3.org/1999/02/22-rdf-syntax-ns#"
   xmlns:svg="http://www.w3.org/2000/svg"
   xmlns="http://www.w3.org/2000/svg"
   xmlns:sodipodi="http://sodipodi.sourceforge.net/DTD/sodipodi-0.dtd"
   xmlns:inkscape="http://www.inkscape.org/namespaces/inkscape"
   width="22"
   height="22"
   id="svg2"
   version="1.1"
   inkscape:version="0.91 r13725"
   viewBox="0 0 22 22"
   sodipodi:docname="kdenlive-show-video.svg">
  <defs
     id="defs4" />
  <sodipodi:namedview
     id="base"
     pagecolor="#ffffff"
     bordercolor="#666666"
     borderopacity="1.0"
     inkscape:pageopacity="0.0"
     inkscape:pageshadow="2"
     inkscape:zoom="35.663084"
     inkscape:cx="9.9607204"
     inkscape:cy="9.2327809"
     inkscape:document-units="px"
     inkscape:current-layer="layer1"
     showgrid="true"
     units="px"
     borderlayer="true"
     inkscape:showpageshadow="false"
     inkscape:window-width="1920"
     inkscape:window-height="1021"
     inkscape:window-x="-4"
     inkscape:window-y="0"
     inkscape:window-maximized="1"
     showguides="true">
    <sodipodi:guide
       position="2,20.000017"
       orientation="18,0"
       id="guide4066" />
    <sodipodi:guide
       position="2,2.0000174"
       orientation="0,18"
       id="guide4068" />
    <sodipodi:guide
       position="20,2.0000174"
       orientation="-18,0"
       id="guide4070" />
    <sodipodi:guide
       position="20,20.000017"
       orientation="0,-18"
       id="guide4072" />
    <sodipodi:guide
       position="3,19.000017"
       orientation="16,0"
       id="guide4074" />
    <sodipodi:guide
       position="3,3.0000174"
       orientation="0,16"
       id="guide4076" />
    <sodipodi:guide
       position="19,3.0000174"
       orientation="-16,0"
       id="guide4078" />
    <sodipodi:guide
       position="19,19.000017"
       orientation="0,-16"
       id="guide4080" />
    <inkscape:grid
       type="xygrid"
       id="grid4101" />
    <sodipodi:guide
       position="8,19.000017"
       orientation="0,-5"
       id="guide4124" />
    <sodipodi:guide
       position="11,3.0000174"
       orientation="0,4"
       id="guide4241" />
  </sodipodi:namedview>
  <metadata
     id="metadata7">
    <rdf:RDF>
      <cc:Work
         rdf:about="">
        <dc:format>image/svg+xml</dc:format>
        <dc:type
           rdf:resource="http://purl.org/dc/dcmitype/StillImage" />
        <dc:title />
      </cc:Work>
    </rdf:RDF>
  </metadata>
  <g
     inkscape:label="Capa 1"
     inkscape:groupmode="layer"
     id="layer1"
     transform="translate(0,-1030.3622)">
    <g
       transform="translate(-553.72253,447.24294)"
       id="layer1-6"
       inkscape:label="Capa 1">
      <path
         id="rect3009"
         transform="translate(553.72253,583.11926)"
         d="m 3,4 0,15 1,0 2,0 10,0 2,0 1,0 L 19,4 18,4 16,4 6,4 4,4 3,4 Z M 4,5 5,5 5,6 4,6 4,5 Z m 2,0 10,0 0,5.5 -10,0 L 6,5 Z m 11,0 1,0 0,1 -1,0 0,-1 z M 4,8 5,8 5,9 4,9 4,8 Z m 13,0 1,0 0,1 -1,0 0,-1 z m -13,3 1,0 0,1 -1,0 0,-1 z m 13,0 1,0 0,1 -1,0 0,-1 z m -11,1.5 10,0 0,5.5 -10,0 0,-5.5 z m -2,1.5 1,0 0,1 -1,0 0,-1 z m 13,0 1,0 0,1 -1,0 0,-1 z m -13,3 1,0 0,1 -1,0 0,-1 z m 13,0 1,0 0,1 -1,0 0,-1 z"
         style="fill:#4d4d4d;fill-opacity:1;stroke:none"
         inkscape:connector-curvature="0" />
    </g>
  </g>
</svg>
