<svg xmlns="http://www.w3.org/2000/svg" width="22" height="22">
    <defs id="defs3051">
    <style type="text/css" id="current-color-scheme">
      .ColorScheme-Text {
        color:#4d4d4d;
      }
      </style>
  </defs>
    <path style="color:currentColor;clip-rule:nonzero;display:inline;overflow:visible;visibility:visible;opacity:1;isolation:auto;mix-blend-mode:normal;color-interpolation:sRGB;color-interpolation-filters:linearRGB;solid-color:currentColor;solid-opacity:1;fill:currentColor;fill-opacity:1;fill-rule:nonzero;stroke:none;stroke-width:1;stroke-linecap:butt;stroke-linejoin:miter;stroke-miterlimit:4;stroke-dasharray:none;stroke-dashoffset:0;stroke-opacity:1;marker:none;marker-start:none;marker-mid:none;marker-end:none;color-rendering:auto;image-rendering:auto;shape-rendering:auto;text-rendering:auto;enable-background:accumulate;filter-blend-mode:normal;filter-gaussianBlur-deviation:0" d="M 11 3 A 8 8 0 0 0 3 11 A 8 8 0 0 0 4.3945312 15.5 L 5.1171875 14.777344 A 7 7 0 0 1 4 11 A 7 7 0 0 1 11 4 A 7 7 0 0 1 14.773438 5.1210938 L 15.494141 4.4003906 A 8 8 0 0 0 11 3 z M 16.291016 5.0175781 L 15.582031 5.7265625 A 7 7 0 0 1 16.277344 6.4160156 L 16.988281 5.7050781 A 8 8 0 0 0 16.291016 5.0175781 z M 17.611328 6.4960938 L 16.890625 7.2167969 A 7 7 0 0 1 16.890625 7.21875 A 7 7 0 0 1 18 11 A 7 7 0 0 1 11 18 A 7 7 0 0 1 7.2226562 16.884766 L 6.5019531 17.605469 A 8 8 0 0 0 11 19 A 8 8 0 0 0 19 11 A 8 8 0 0 0 17.611328 6.4960938 z M 11 8 L 11 8.8945312 L 11.511719 8.3828125 L 11 8 z M 12.320312 8.9882812 L 11 10.308594 L 11 11.693359 L 13.111328 9.5820312 L 12.320312 8.9882812 z M 13.917969 10.189453 L 11 13.107422 L 11 14 L 15 11 L 13.917969 10.189453 z M 5.7246094 15.583984 L 5.0195312 16.289062 A 8 8 0 0 0 5.7070312 16.986328 L 6.4121094 16.28125 A 7 7 0 0 1 5.7246094 15.583984 z" class="ColorScheme-Text"/>
    <path style="color:#000;clip-rule:nonzero;display:inline;overflow:visible;visibility:visible;opacity:1;isolation:auto;mix-blend-mode:normal;color-interpolation:sRGB;color-interpolation-filters:linearRGB;solid-color:#000;solid-opacity:1;fill:#da4453;fill-opacity:1;fill-rule:nonzero;stroke:none;stroke-width:1;stroke-linecap:butt;stroke-linejoin:miter;stroke-miterlimit:4;stroke-dasharray:none;stroke-dashoffset:0;stroke-opacity:1;marker:none;marker-start:none;marker-mid:none;marker-end:none;color-rendering:auto;image-rendering:auto;shape-rendering:auto;text-rendering:auto;enable-background:accumulate" d="M 10 8 A 3 3 0 0 0 7 11 A 3 3 0 0 0 7.4003906 12.494141 L 10 9.8945312 L 10 8 z M 10 11.308594 L 8.0410156 13.267578 A 3 3 0 0 0 8.9003906 13.791016 L 10 12.691406 L 10 11.308594 z" class="ColorScheme-Text"/>
    <path style="color:currentColor;clip-rule:nonzero;display:inline;overflow:visible;visibility:visible;opacity:1;isolation:auto;mix-blend-mode:normal;color-interpolation:sRGB;color-interpolation-filters:linearRGB;solid-color:currentColor;solid-opacity:1;fill:currentColor;fill-opacity:1;fill-rule:nonzero;stroke:none;stroke-width:1;stroke-linecap:butt;stroke-linejoin:miter;stroke-miterlimit:4;stroke-dasharray:none;stroke-dashoffset:0;stroke-opacity:1;color-rendering:auto;image-rendering:auto;shape-rendering:auto;text-rendering:auto;enable-background:accumulate;marker:none;marker-start:none;marker-mid:none;marker-end:none;filter-blend-mode:normal;filter-gaussianBlur-deviation:0" d="M 18.29297,2.9999999 3,18.293 3.70703,19 19,3.7069999 l -0.70703,-0.707 z" class="ColorScheme-Text"/>
</svg>
