<svg xmlns="http://www.w3.org/2000/svg" height="22" width="22">
    <defs id="defs3051">
        <style type="text/css" id="current-color-scheme">
            .ColorScheme-Text{color:#4d4d4d}
        </style>
    </defs>
    <g fill="currentColor" class="ColorScheme-Text">
        <path d="M5.428 5.98h11v11h-11z"/>
        <path d="M6.46 4.512h1.28v2H6.46zm2.416 0h1.28v2h-1.28zm2.416 0h1.28v2h-1.28zm2.418 0h1.28v2h-1.28zm-7.22 12h1.28v2H6.49zm2.417 0h1.28v2h-1.28zm2.417 0h1.28v2h-1.28zm2.416 0h1.28v2h-1.28zM5.882 7.215v1.28h-2v-1.28zm0 2.417v1.28h-2v-1.28zm0 2.418v1.28h-2v-1.28zm0 2.415v1.28h-2v-1.28zM17.913 7.06v1.28h-2V7.06zm0 2.416v1.28h-2v-1.28zm0 2.417v1.28h-2v-1.28zm0 2.417v1.28h-2v-1.28z"/>
    </g>
</svg>

