<svg version="1.1" viewBox="0 0 22 22" xmlns="http://www.w3.org/2000/svg">
    <defs>
        <style id="current-color-scheme" type="text/css">.ColorScheme-Text {
        color:#eff0f1;
      }</style>
    </defs>
    <path style="fill:currentColor;fill-opacity:1;stroke:none" d="m7 3v1h3v2.0253906c-3.345314 0.2580024-6 3.065482-6 6.4746094 0 3.409127 2.654686 6.216607 6 6.474609v-1c-2.8029736-0.252886-5-2.605785-5-5.474609 0-3.0375661 2.4624339-5.5 5.5-5.5 2.868824 0 5.221723 2.1970264 5.474609 5h1.001953c-0.10969-1.413855-0.675776-2.7011564-1.550781-3.71875l1.076172-1.0761719 0.798828 0.7949219 0.705078-0.7089844-2.298828-2.2890625-0.705078 0.7089844 0.791016 0.7890625-1.074219 1.0742188c-1.018652-0.8721326-2.305512-1.4398343-3.71875-1.5488282v-2.0253906h3v-1h-7zm6 9v3h-3v1h3v3h1v-3h3v-1h-3v-3h-1z" class="ColorScheme-Text"/>
</svg>
