<svg version="1.1" viewBox="0 0 22 22" xmlns="http://www.w3.org/2000/svg">
    <defs>
        <style id="current-color-scheme" type="text/css">.ColorScheme-Text {
        color:#eff0f1;
      }</style>
    </defs>
    <path style="fill:currentColor;fill-opacity:1;stroke:none" d="m7 3v1h3v2.0253906c-3.345314 0.2580024-6 3.065482-6 6.4746094 0 0.985128 0.2273322 1.917485 0.6230469 2.755859l0.7578125-0.757812c-0.2423462-0.620165-0.3808594-1.292049-0.3808594-1.998047 0-3.0375661 2.4624339-5.5 5.5-5.5 0.705998 0 1.377882 0.1385132 1.998047 0.3808594l0.744141-0.7441406c-0.692573-0.3269796-1.443196-0.5497071-2.242188-0.6113282v-2.0253906h3v-1h-7zm11.292969 0-15.292969 15.292969 0.7070312 0.707031 15.292969-15.292969-0.707031-0.7070312zm-0.876953 3.7050781-0.707032 0.7070313 0.591797 0.5878906 0.705078-0.7089844-0.589843-0.5859375zm-1.816407 1.8164063-0.695312 0.6953125c0.684983 0.9171481 1.095703 2.0504541 1.095703 3.2832031 0 3.037566-2.462434 5.5-5.5 5.5-1.2327492 0-2.3660547-0.41072-3.2832031-1.095703l-0.7089844 0.708984c1.104037 0.864737 2.4877477 1.386719 3.9921875 1.386719 3.578006 0 6.5-2.921994 6.5-6.5 0-1.50382-0.535284-2.8764137-1.400391-3.9785156z" class="ColorScheme-Text"/>
</svg>
