<svg version="1.1" viewBox="0 0 22 22" xmlns="http://www.w3.org/2000/svg">
    <defs>
        <style id="current-color-scheme" type="text/css">.ColorScheme-Text {
        color:#eff0f1;
      }</style>
    </defs>
    <path style="fill:currentColor;fill-opacity:1;stroke:none" class="ColorScheme-Text" d="m5 5v1h2v1.0507812c-2.2379593 0.2537455-4 2.1467332-4 4.4492188 0 2.473437 2.0265633 4.5 4.5 4.5 2.473437 0 4.5-2.026563 4.5-4.5 0-1.059095-0.385401-2.0209801-1.005859-2.7871094l0.754297-0.7542968 0.398046 0.3949218 0.707031-0.7089844-1.501953-1.4980469-0.705078 0.7070313 0.394922 0.3980469-0.75039 0.7503906c-0.6460254-0.510828-1.432052-0.8537803-2.291016-0.9511719v-1.0507812h2v-1zm10 1v10l4-5zm-7.5 2c1.932997 0 3.5 1.5670034 3.5 3.5 0 1.932997-1.567003 3.5-3.5 3.5-1.9329966 0-3.5-1.567003-3.5-3.5 0-1.9329966 1.5670034-3.5 3.5-3.5z"/>
</svg>
