<svg version="1.1" viewBox="0 0 22 22" xmlns="http://www.w3.org/2000/svg">
    <defs>
      <style type="text/css" id="current-color-scheme">
        .ColorScheme-Text {
            color:#eff0f1;
        }
      </style>
    </defs>
      <path style="fill:currentColor;fill-opacity:1;stroke:none" d="m7 3v1h3v2.0253906c-3.345314 0.2580024-6 3.065482-6 6.4746094 0 3.578006 2.9219938 6.5 6.5 6.5 3.578006 0 6.5-2.921994 6.5-6.5 0-1.609925-0.597018-3.0823066-1.574219-4.21875l1.076172-1.0761719 0.798828 0.7949219 0.705078-0.7089844-2.298828-2.2890625-0.705078 0.7089844 0.791016 0.7890625-1.074219 1.0742188c-1.018652-0.8721326-2.305512-1.4398343-3.71875-1.5488282v-2.0253906h3v-1h-7zm3.5 4c3.037566 0 5.5 2.4624339 5.5 5.5 0 3.037566-2.462434 5.5-5.5 5.5-3.0375661 0-5.5-2.462434-5.5-5.5 0-3.0375661 2.4624339-5.5 5.5-5.5z" class="ColorScheme-Text"/>
</svg>
