<?xml version="1.0" encoding="UTF-8" standalone="no"?>
<!-- Created with Inkscape (http://www.inkscape.org/) -->

<svg
   xmlns:dc="http://purl.org/dc/elements/1.1/"
   xmlns:cc="http://creativecommons.org/ns#"
   xmlns:rdf="http://www.w3.org/1999/02/22-rdf-syntax-ns#"
   xmlns:svg="http://www.w3.org/2000/svg"
   xmlns="http://www.w3.org/2000/svg"
   xmlns:sodipodi="http://sodipodi.sourceforge.net/DTD/sodipodi-0.dtd"
   xmlns:inkscape="http://www.inkscape.org/namespaces/inkscape"
   width="22"
   height="22"
   id="svg3760"
   version="1.1"
   inkscape:version="0.91+devel r"
   sodipodi:docname="draw-bezier-curves.svg">
  <defs
     id="defs3762" />
  <sodipodi:namedview
     id="base"
     pagecolor="#ffffff"
     bordercolor="#666666"
     borderopacity="1.0"
     inkscape:pageopacity="0.0"
     inkscape:pageshadow="2"
     inkscape:zoom="11.53468"
     inkscape:cx="12.393137"
     inkscape:cy="13.539665"
     inkscape:document-units="px"
     inkscape:current-layer="layer1"
     showgrid="true"
     fit-margin-top="0"
     fit-margin-left="0"
     fit-margin-right="0"
     fit-margin-bottom="0"
     inkscape:window-width="1366"
     inkscape:window-height="670"
     inkscape:window-x="-4"
     inkscape:window-y="29"
     inkscape:window-maximized="1"
     inkscape:showpageshadow="false">
    <sodipodi:guide
       position="-1,23"
       orientation="24,0"
       id="guide4115" />
    <sodipodi:guide
       position="-1,-1"
       orientation="0,24"
       id="guide4117" />
    <sodipodi:guide
       position="23,-1"
       orientation="-24,0"
       id="guide4119" />
    <sodipodi:guide
       position="23,23"
       orientation="0,-24"
       id="guide4121" />
    <sodipodi:guide
       position="2,20"
       orientation="18,0"
       id="guide4123" />
    <sodipodi:guide
       position="2,2"
       orientation="0,18"
       id="guide4125" />
    <sodipodi:guide
       position="20,2"
       orientation="-18,0"
       id="guide4127" />
    <sodipodi:guide
       position="20,20"
       orientation="0,-18"
       id="guide4129" />
    <sodipodi:guide
       position="3,19"
       orientation="16,0"
       id="guide4131" />
    <sodipodi:guide
       position="3,3"
       orientation="0,16"
       id="guide4133" />
    <sodipodi:guide
       position="19,3"
       orientation="-16,0"
       id="guide4135" />
    <sodipodi:guide
       position="19,19"
       orientation="0,-16"
       id="guide4137" />
    <inkscape:grid
       type="xygrid"
       id="grid4139"
       originx="-0.99998557"
       originy="-1.0000118" />
  </sodipodi:namedview>
  <metadata
     id="metadata3765">
    <rdf:RDF>
      <cc:Work
         rdf:about="">
        <dc:format>image/svg+xml</dc:format>
        <dc:type
           rdf:resource="http://purl.org/dc/dcmitype/StillImage" />
        <dc:title></dc:title>
      </cc:Work>
    </rdf:RDF>
  </metadata>
  <g
     inkscape:label="Capa 1"
     inkscape:groupmode="layer"
     id="layer1"
     transform="translate(-551.28571,-607.64789)">
    <path
       style="opacity:1;fill:#f2f2f2;fill-opacity:1;stroke:none"
       d="M 18.5,4 C 17.84576,4 17.297803,4.4180774 17.091797,5 L 4,5 4,6 c 3.601,0 6.5,2.899 6.5,6.5 0,1.905514 -0.822115,3.601777 -2.1210938,4.787109 C 8.1331793,17.10687 7.8301303,17 7.5,17 6.669,17 6,17.669 6,18.5 6,19.331 6.669,20 7.5,20 8.1542402,20 8.7021974,19.581923 8.9082031,19 L 13,19 l 0,1 3,0 0,-3 -3,0 0,1 -3.9121094,0 C 10.567038,16.632069 11.5,14.682903 11.5,12.5 11.5,9.7113329 9.9893316,7.2925313 7.7421875,6 L 17.091797,6 C 17.297803,6.5819226 17.84576,7 18.5,7 19.331,7 20,6.331 20,5.5 20,4.669 19.331,4 18.5,4 Z m 0,1 C 18.777,5 19,5.223 19,5.5 19,5.777 18.777,6 18.5,6 18.43075,6 18.364547,5.9861719 18.304688,5.9609375 18.125109,5.8852344 18,5.70775 18,5.5 18,5.43075 18.013828,5.3645469 18.039062,5.3046875 18.114766,5.1251094 18.29225,5 18.5,5 Z M 7.5,18 C 7.777,18 8,18.223 8,18.5 8,18.777 7.777,19 7.5,19 7.223,19 7,18.777 7,18.5 7,18.223 7.223,18 7.5,18 Z m 6.5,0 1,0 0,1 -1,0 0,-1 z"
       transform="translate(550.28572,606.6479)"
       id="rect3316"
       inkscape:connector-curvature="0" />
  </g>
</svg>
