<?xml version="1.0" encoding="UTF-8" standalone="no"?>
<!-- Created with Inkscape (http://www.inkscape.org/) -->

<svg
   xmlns:dc="http://purl.org/dc/elements/1.1/"
   xmlns:cc="http://creativecommons.org/ns#"
   xmlns:rdf="http://www.w3.org/1999/02/22-rdf-syntax-ns#"
   xmlns:svg="http://www.w3.org/2000/svg"
   xmlns="http://www.w3.org/2000/svg"
   xmlns:sodipodi="http://sodipodi.sourceforge.net/DTD/sodipodi-0.dtd"
   xmlns:inkscape="http://www.inkscape.org/namespaces/inkscape"
   width="22"
   height="22"
   id="svg4359"
   version="1.1"
   inkscape:version="0.48+devel r"
   sodipodi:docname="go-jump-definition.svg">
  <defs
     id="defs4361" />
  <sodipodi:namedview
     id="base"
     pagecolor="#ffffff"
     bordercolor="#666666"
     borderopacity="1.0"
     inkscape:pageopacity="0.0"
     inkscape:pageshadow="2"
     inkscape:zoom="45.254834"
     inkscape:cx="8.9280388"
     inkscape:cy="13.685686"
     inkscape:current-layer="layer1"
     showgrid="true"
     inkscape:grid-bbox="true"
     inkscape:document-units="px"
     inkscape:window-width="1366"
     inkscape:window-height="668"
     inkscape:window-x="-2"
     inkscape:window-y="23"
     inkscape:window-maximized="1"
     inkscape:showpageshadow="false"
     showguides="true">
    <inkscape:grid
       type="xygrid"
       id="grid4107" />
    <sodipodi:guide
       position="2,20"
       orientation="18,0"
       id="guide4113" />
    <sodipodi:guide
       position="20,2"
       orientation="-18,0"
       id="guide4117" />
    <sodipodi:guide
       position="20,20"
       orientation="0,-18"
       id="guide4119" />
    <sodipodi:guide
       position="3,19"
       orientation="16,0"
       id="guide4121" />
    <sodipodi:guide
       position="3,3"
       orientation="0,16"
       id="guide4123" />
    <sodipodi:guide
       position="19,3"
       orientation="-16,0"
       id="guide4125" />
    <sodipodi:guide
       position="19,19"
       orientation="0,-16"
       id="guide4127" />
  </sodipodi:namedview>
  <metadata
     id="metadata4364">
    <rdf:RDF>
      <cc:Work
         rdf:about="">
        <dc:format>image/svg+xml</dc:format>
        <dc:type
           rdf:resource="http://purl.org/dc/dcmitype/StillImage" />
        <dc:title></dc:title>
      </cc:Work>
    </rdf:RDF>
  </metadata>
  <g
     id="layer1"
     inkscape:label="Layer 1"
     inkscape:groupmode="layer"
     transform="translate(0,-26)">
    <path
       style="opacity:1;fill:#f2f2f2;fill-opacity:1;stroke:none"
       d="M 8 3 L 3 5 L 9 7 L 14 5 L 8 3 z M 3 6 L 3 12 L 8 14 L 8 8 L 3 6 z M 14 6 L 9 8 L 9 14 L 14 12 L 14 6 z M 17 6 L 16 7 L 15 8 L 17 10 L 17 8.7148438 C 17.624415 9.6579187 18 10.778652 18 12 C 18 15.324 15.324 18 12 18 L 12 19 C 15.878 19 19 15.878 19 12 C 19 10.090887 18.232299 8.3761254 17 7.1171875 L 17 6 z "
       transform="translate(0,26)"
       id="rect4110" />
  </g>
</svg>
