<?xml version="1.0" encoding="UTF-8" standalone="no"?>
<!-- Created with Inkscape (http://www.inkscape.org/) -->

<svg
   xmlns:dc="http://purl.org/dc/elements/1.1/"
   xmlns:cc="http://creativecommons.org/ns#"
   xmlns:rdf="http://www.w3.org/1999/02/22-rdf-syntax-ns#"
   xmlns:svg="http://www.w3.org/2000/svg"
   xmlns="http://www.w3.org/2000/svg"
   xmlns:sodipodi="http://sodipodi.sourceforge.net/DTD/sodipodi-0.dtd"
   xmlns:inkscape="http://www.inkscape.org/namespaces/inkscape"
   width="22"
   height="22"
   id="svg3760"
   version="1.1"
   inkscape:version="0.91 r13725"
   sodipodi:docname="kdenlive-split-audio.svg">
  <defs
     id="defs3762" />
  <sodipodi:namedview
     id="base"
     pagecolor="#ffffff"
     bordercolor="#666666"
     borderopacity="1.0"
     inkscape:pageopacity="0.0"
     inkscape:pageshadow="2"
     inkscape:zoom="32.625"
     inkscape:cx="7.0915569"
     inkscape:cy="9.3135605"
     inkscape:document-units="px"
     inkscape:current-layer="layer1"
     showgrid="true"
     fit-margin-top="0"
     fit-margin-left="0"
     fit-margin-right="0"
     fit-margin-bottom="0"
     inkscape:window-width="1920"
     inkscape:window-height="1021"
     inkscape:window-x="-4"
     inkscape:window-y="0"
     inkscape:window-maximized="1"
     inkscape:showpageshadow="false"
     showguides="true"
     inkscape:snap-bbox="true"
     inkscape:object-nodes="true">
    <sodipodi:guide
       position="0,14"
       orientation="22,0"
       id="guide4116" />
    <sodipodi:guide
       position="4.1796875e-06,-2.6953124e-06"
       orientation="0,22"
       id="guide4118" />
    <sodipodi:guide
       position="22.000004,-2.6953124e-06"
       orientation="-22,0"
       id="guide4120" />
    <sodipodi:guide
       position="22.000004,21.999997"
       orientation="0,-22"
       id="guide4122" />
    <sodipodi:guide
       position="3,8"
       orientation="18,0"
       id="guide4124" />
    <sodipodi:guide
       position="20,20"
       orientation="0,-18"
       id="guide4130" />
    <sodipodi:guide
       position="19,14"
       orientation="16,0"
       id="guide4132" />
    <sodipodi:guide
       position="3.0000042,2.9999973"
       orientation="0,16"
       id="guide4134" />
    <sodipodi:guide
       position="19.000004,18.999997"
       orientation="0,-16"
       id="guide4138" />
    <inkscape:grid
       type="xygrid"
       id="grid4140" />
  </sodipodi:namedview>
  <metadata
     id="metadata3765">
    <rdf:RDF>
      <cc:Work
         rdf:about="">
        <dc:format>image/svg+xml</dc:format>
        <dc:type
           rdf:resource="http://purl.org/dc/dcmitype/StillImage" />
        <dc:title />
      </cc:Work>
    </rdf:RDF>
  </metadata>
  <g
     inkscape:label="Capa 1"
     inkscape:groupmode="layer"
     id="layer1"
     transform="translate(-553.72253,-583.11926)">
    <path
       style="fill:#f2f2f2;fill-opacity:1;stroke:none"
       d="m 556.72253,585.11926 0,4 0,1 0,4 1,0 2,0 10,0 2,0 1,0 0,-4 0,-1 0,-4 -1,0 -2,0 -10,0 -2,0 -1,0 z m 1,1 1,0 0,1 -1,0 0,-1 z m 2,0 10,0 0,3 0,1 0,3 -10,0 0,-3 0,-1 0,-3 z m 11,0 1,0 0,1 -1,0 0,-1 z m -13,3 1,0 0,1 -1,0 0,-1 z m 13,0 1,0 0,1 -1,0 0,-1 z m -13,3 1,0 0,1 -1,0 0,-1 z m 13,0 1,0 0,1 -1,0 0,-1 z"
       id="rect3009"
       inkscape:connector-curvature="0" />
    <path
       style="fill:#f2f2f2;fill-opacity:1;stroke:none;stroke-width:2;stroke-linecap:round;stroke-miterlimit:4;stroke-dasharray:none;stroke-opacity:1"
       d="M 5 12 L 5 14 L 4 14 L 4 15 L 3 15 L 3 16 L 4 16 L 4 17 L 5 17 L 5 19 L 6 19 L 6 18 L 7 18 L 7 17 L 8 17 L 8 16 L 9 16 L 9 17 L 10 17 L 10 19 L 11 19 L 11 18 L 12 18 L 12 16 L 13 16 L 13 17 L 14 17 L 14 18 L 15 18 L 15 19 L 16 19 L 16 18 L 17 18 L 17 17 L 18 17 L 18 16 L 19 16 L 19 15 L 18 15 L 18 14 L 17 14 L 17 13 L 16 13 L 16 12 L 15 12 L 15 13 L 14 13 L 14 14 L 13 14 L 13 15 L 12 15 L 12 13 L 11 13 L 11 12 L 10 12 L 10 14 L 9 14 L 9 15 L 8 15 L 8 14 L 7 14 L 7 13 L 6 13 L 6 12 L 5 12 z "
       transform="translate(553.72253,583.11926)"
       id="rect4183" />
  </g>
</svg>
