/* XPM */
static char * kdenlive_xpm[] = {
"32 32 193 2",
"  	c None",
". 	c #2B2B2B",
"+ 	c #2C2C2C",
"@ 	c #323232",
"# 	c #2B3948",
"$ 	c #DF4622",
"% 	c #2D2D2E",
"& 	c #303C4C",
"* 	c #396094",
"= 	c #3B67A0",
"- 	c #DF4522",
"; 	c #2A2A2A",
"> 	c #2C3948",
", 	c #355D96",
"' 	c #37629E",
") 	c #38649F",
"! 	c #3A66A0",
"~ 	c #396397",
"{ 	c #DF4724",
"] 	c #DE4521",
"^ 	c #893623",
"/ 	c #582D27",
"( 	c #2D3C52",
"_ 	c #2D4A75",
": 	c #272B31",
"< 	c #345F9D",
"[ 	c #35619E",
"} 	c #37639E",
"| 	c #39649F",
"1 	c #3B66A0",
"2 	c #355986",
"3 	c #EA8B77",
"4 	c #EB907B",
"5 	c #35333D",
"6 	c #2B518D",
"7 	c #2D589A",
"8 	c #2F5A9A",
"9 	c #2B3647",
"0 	c #2B3C53",
"a 	c #34609D",
"b 	c #36619E",
"c 	c #38639F",
"d 	c #39659F",
"e 	c #304C6F",
"f 	c #EA8E79",
"g 	c #EA907A",
"h 	c #AE6F61",
"i 	c #7F4354",
"j 	c #2A5598",
"k 	c #2C5799",
"l 	c #2E599A",
"m 	c #2F5B9A",
"n 	c #252525",
"o 	c #335D9A",
"p 	c #35609D",
"q 	c #36629E",
"r 	c #3A65A0",
"s 	c #3B669F",
"t 	c #A23925",
"u 	c #494878",
"v 	c #2B5698",
"w 	c #2D486E",
"x 	c #335F9C",
"y 	c #365B8A",
"z 	c #A87881",
"A 	c #934E4A",
"B 	c #92372C",
"C 	c #2C5292",
"D 	c #2D5899",
"E 	c #2E5A9A",
"F 	c #2A3441",
"G 	c #2A394E",
"H 	c #325281",
"I 	c #A87275",
"J 	c #A63C29",
"K 	c #813A3A",
"L 	c #2B5699",
"M 	c #2D5898",
"N 	c #2B4162",
"O 	c #244073",
"P 	c #544A78",
"Q 	c #A1615B",
"R 	c #8E372D",
"S 	c #2B4E86",
"T 	c #505050",
"U 	c #252526",
"V 	c #20417A",
"W 	c #1D4892",
"X 	c #1F4A92",
"Y 	c #AB7576",
"Z 	c #823F41",
"` 	c #7C3A3E",
" .	c #525252",
"..	c #565656",
"+.	c #25282F",
"@.	c #1C3D7B",
"#.	c #1C4691",
"$.	c #1E4892",
"%.	c #574A77",
"&.	c #AD726C",
"*.	c #92453F",
"=.	c #873E2F",
"-.	c #66312B",
";.	c #6A6A6B",
">.	c #5D739A",
",.	c #323C4F",
"'.	c #1E3458",
").	c #1A4590",
"!.	c #1C4791",
"~.	c #1E4791",
"{.	c #D57E6D",
"].	c #E1583E",
"^.	c #5C6B89",
"/.	c #5975A9",
"(.	c #6077A1",
"_.	c #262B35",
":.	c #1B3D7B",
"<.	c #1B4590",
"[.	c #1D4791",
"}.	c #584C77",
"|.	c #CA8273",
"1.	c #C47869",
"2.	c #4B4B4B",
"3.	c #3E3E3F",
"4.	c #576070",
"5.	c #516C9E",
"6.	c #5571A4",
"7.	c #404755",
"8.	c #1E335A",
"9.	c #194390",
"0.	c #1B4591",
"a.	c #204280",
"b.	c #A2655F",
"c.	c #B2766B",
"d.	c #EC9A8A",
"e.	c #383838",
"f.	c #4C5058",
"g.	c #476291",
"h.	c #4C6799",
"i.	c #64728D",
"j.	c #18428F",
"k.	c #1E3D78",
"l.	c #AF756A",
"m.	c #373737",
"n.	c #2E2E2F",
"o.	c #3E4B61",
"p.	c #425D8C",
"q.	c #486393",
"r.	c #4C679A",
"s.	c #506C9F",
"t.	c #5A6F97",
"u.	c #414B5D",
"v.	c #24314B",
"w.	c #2F2F30",
"x.	c #2F3845",
"y.	c #353C48",
"z.	c #3D5885",
"A.	c #425D8E",
"B.	c #486293",
"C.	c #4D689A",
"D.	c #516D9F",
"E.	c #515A6A",
"F.	c #243F69",
"G.	c #122C52",
"H.	c #323945",
"I.	c #37527F",
"J.	c #3C5887",
"K.	c #435E8E",
"L.	c #486294",
"M.	c #506384",
"N.	c #505051",
"O.	c #2D3034",
"P.	c #324C77",
"Q.	c #3D5987",
"R.	c #455B83",
"S.	c #2B2F35",
"T.	c #2E3E59",
"U.	c #324C7A",
"V.	c #37517D",
"W.	c #253246",
"X.	c #2C333F",
"Y.	c #2B4673",
"Z.	c #2F3847",
"`.	c #29303A",
" +	c #2B3649",
".+	c #292C2F",
"++	c #363637",
"@+	c #152C4B",
"#+	c #152B49",
"$+	c #1A232F",
"%+	c #1F1F1F",
"&+	c #212121",
"*+	c #202020",
"                                                                ",
"                                          . + +                 ",
"                                      + + +   @ #               ",
"                          $       + + .   % & * =               ",
"                        - $     + +   ; > , ' ) ! ~             ",
"                      { $ ] ^ /   + ( _ : < [ } | 1 2           ",
"                  3 4 4   ^ ^ ^ 5 6 7 8 9 0 a b c d = e         ",
"                  f g h h   ^ i i j k l m n o p q c r s         ",
"                    h h h t i i i u v k l w : x p ' y + +       ",
"                  + h   z A B i i i C v D E F G H + +   + .     ",
"                + + + z z I J K i i i j L M N + +   + +         ",
"              + +   O P z z Q R i i i i S + +   + +             ",
"            T ; U V W X z z Y   Z i i ` +   + +                 ",
"           ...  +.@.#.$.%.z z &.*.i =.=.-.+                     ",
"          T ;.>.,.'.).!.~.z z z {.=.=.=.].                      ",
"        ..  ^./.(._.:.<.[.}.z z |.1.=.].].].                    ",
"      2.3.4.5.6./.7.8.9.0.a.b.z c.d.d.].].                      ",
"    e.+ f.g.h.5.6.i.n j.k.+   l.d.d.d.                          ",
"    m.n.o.p.q.r.s.t.u.v.  + + d.d.d.                            ",
"    w.x.y.z.A.B.C.D.E.+ + +     d.                              ",
"    F.G.H.I.J.K.L.M.N.  +                                       ",
"    F.G.O.P.I.Q.R.N.N.N.                                        ",
"      G.S.T.U.V.N.  N.                                          ",
"      G.W.X.Y.Z.N.N.                                            ",
"      G.G.`. +  N.                                              ",
"      G.G..+++++                                                ",
"      @+G.++++++                                                ",
"      #+$+  %+                                                  ",
"        &+*+                                                    ",
"        *+                                                      ",
"        &+                                                      ",
"                                                                "};
