/* XPM */
static char *kdenlive[] = {
/* columns rows colors chars-per-pixel */
"32 32 67 1 ",
"  c #65313C",
". c #6C343F",
"X c #2F3942",
"o c #303742",
"O c #333C45",
"+ c #343D48",
"@ c #6A3643",
"# c #663945",
"$ c #37414B",
"% c #3A434E",
"& c #3D4651",
"* c #3F4853",
"= c #2A5377",
"- c #295179",
"; c #414A55",
": c #454E5A",
"> c #47505C",
", c #49525E",
"< c #74404F",
"1 c #79414F",
"2 c #764251",
"3 c #794150",
"4 c #4C5560",
"5 c #734463",
"6 c #754865",
"7 c #784967",
"8 c #7B4D6A",
"9 c #7D506D",
"0 c #A61F2E",
"q c #A9212F",
"w c #AA2130",
"e c #B02D3F",
"r c #C61524",
"t c #C81726",
"y c #CD1B2C",
"u c #D11F31",
"i c #D32235",
"p c #D62539",
"a c #D8273B",
"s c #DA283E",
"d c #B02D40",
"f c #B93144",
"g c #DB2A40",
"h c #2F5D84",
"j c #305E84",
"k c #376C8C",
"l c #386F8E",
"z c #39718F",
"x c #3B7490",
"c c #188ACF",
"v c #1887D5",
"b c #1989D3",
"n c #1985DC",
"m c #1988DB",
"M c #1984E3",
"N c #1A8DE6",
"B c #1981E8",
"V c #1B91E3",
"C c #1C96F4",
"Z c #1C9AF5",
"A c #1DA4F6",
"S c #1EABF7",
"D c #1EAFF8",
"F c #1FB3F8",
"G c #1FB9F9",
"H c #20BCF9",
"J c None",
/* pixels */
"JJJJJJJJJJJJJJJJJJJJJJJJJJJJJJJJ",
"JJJJJJJJJJJJJJJJJJJJJJJJJJJJJJJJ",
"JJJJJJJJJJJJJJJJJJJJJJJJJJJJJJJJ",
"JJJJJJJJJJJJJggggggJJJJJJJJJJJJJ",
"4444,,,,,:,:>>2sg#++%;;;*&&&&&%%",
"J44J4,>,J,:J:3fssd@+J%;J&&&&J%&J",
"J4,J,,,>J::J:1fasd@+JO+J&&&%J%%J",
"444,,,,:>:::::<ap#+++++;&&&&%%%%",
"J,xHHGGHFFHS:8ppap7+cccbVZZZZj%J",
"J,xHHGGFFFDD:9pppp6OcbbbbVZCCh%J",
"J,xHGGHDDHDD:8ppip6+bbbbbmNCCh%J",
"J,xHFHDHDFDD:8iipi7ObbbmvvmNCh$J",
"J,xGFFHSDDDS;8iiii7+vmbvvvvnNj$J",
"J,zGHFDHDDDS;8iiii6Ovbvvnnnnn-$J",
"J,zFGFDDDDSS;8iiii5$bvnnnnnnn=OJ",
"J>zGFFDDSSSA;7iuuu5OmvnvnnnMn=XJ",
"J:zSHSSSSSSS;8uuuu5$mmmmnnMnM=oJ",
"J:zHSHSSSSAA;7uuuu2OmmmnnMnMM-oJ",
"J>lSSSSSSAAA&5uyuu6+mNmMMMMnM=XJ",
"J:lHSSSSSAAA;5uyyy5+mmMmMnMMB=XJ",
"J:lDSSSSAAAA;5yyyy5OMnMMMMMBM=oJ",
"J:kDSSSAAAAA;5yyyy5OMMMMMMBBB-oJ",
"J;kSSSSAAAZA&5yyyy5OMMMMMBBBB-oJ",
"J;kSASAAZAAZ&5ryty5XNMNMMBBBB=XJ",
":;;;;;&&&&&&&%@yt ++OOOOOOOXXOXX",
"J;;J;;&;J&&J%@wttq OJOOJOXXXJXXJ",
"J;;J&;%&J&&J%@qrtq OJOOJOXXOJXXJ",
";;;&;;&&&&%%%%.rt ++OOOOOXOXOXXX",
"JJJJJJJJJJJJJtrtttrJJJJJJJJJJJJJ",
"JJJJJJJJJJJJJJJJJJJJJJJJJJJJJJJJ",
"JJJJJJJJJJJJJJJJJJJJJJJJJJJJJJJJ",
"JJJJJJJJJJJJJJJJJJJJJJJJJJJJJJJJ"
};
