<svg version="1.1" viewBox="0 0 22 22" xmlns="http://www.w3.org/2000/svg">
    <defs>
        <style id="current-color-scheme" type="text/css">.ColorScheme-Text {
        color:#232629;
      }</style>
    </defs>
    <path style="fill:currentColor;fill-opacity:1;stroke:none" class="ColorScheme-Text" d="m10 3v1h2v1.9941406c0.16642-0.018659 0.328597-0.050781 0.5-0.050781 2.485281 0 4.5 2.0147194 4.5 4.4999994 0 1.583292-0.822479 2.969406-2.058594 3.771485-0.055687 0.436882-0.141177 0.868841-0.285156 1.285156 1.961689-0.842475 3.34375-2.795083 3.34375-5.056641 0-1.3179122-0.485556-2.517631-1.265625-3.4667965l0.769531-0.7617187 0.78711 0.7851562 0.707031-0.7070312-2.294922-2.2910157-0.707031 0.7070313 0.798828 0.7988281-0.761719 0.7558594c-0.839235-0.710208-1.879979-1.189714-3.033203-1.2949219v-0.96875h2v-1zm-4 3.03125v1h2v0.96875c-2.7933601 0.2548365-5 2.617554-5 5.474609 0 3.025725 2.4742758 5.5 5.5 5.5 3.025724 0 5.5-2.474275 5.5-5.5 0-1.317913-0.485556-2.517631-1.265625-3.466797l0.769531-0.7617182 0.78711 0.7851562 0.707031-0.7070312-2.294922-2.2910157-0.707031 0.7070313 0.798828 0.7988281-0.761719 0.7558594c-0.839235-0.710208-1.879979-1.189714-3.033203-1.2949219v-0.96875h2v-1zm2.5 2.9433594c2.485281 0 4.5 2.0147186 4.5 4.4999996s-2.014719 4.5-4.5 4.5c-2.485282 0-4.5-2.014719-4.5-4.5s2.014718-4.4999996 4.5-4.4999996z"/>
</svg>
