<svg version="1.1" viewBox="0 0 22 22" xmlns="http://www.w3.org/2000/svg">
    <defs>
        <style id="current-color-scheme" type="text/css">.ColorScheme-Text {
        color:#232629;
      }
      .ColorScheme-NegativeText {
            color:#da4453;
        }</style>
    </defs>
    <path style="fill:currentColor;fill-opacity:1;stroke:none" d="m17 15.5a3.5 3.5 0 0 1-3.5 3.5 3.5 3.5 0 0 1-3.5-3.5 3.5 3.5 0 0 1 3.5-3.5 3.5 3.5 0 0 1 3.5 3.5z"
      class="ColorScheme-NegativeText"/>
    <path style="fill:currentColor;fill-opacity:1;stroke:none" d="m 7,3 v 1 h 3 V 6.0253906 C 6.654686,6.283393 4,9.0908726 4,12.5 c 0,3.578006 2.9219938,6.5 6.5,6.5 0.05475,0 0.107678,-0.0065 0.162109,-0.0078 A 4.4999997,4.4999997 0 0 1 9.71875,17.9375 C 7.0520257,17.557441 5,15.271759 5,12.5 5,9.4624339 7.4624339,7 10.5,7 c 2.771759,0 5.057441,2.0520257 5.4375,4.71875 a 4.4999997,4.4999997 0 0 1 1.054688,0.945312 C 16.99358,12.608981 17,12.555405 17,12.5 17,10.890075 16.402982,9.4176934 15.425781,8.28125 L 16.501953,7.2050781 17.300781,8 18.005859,7.2910156 15.707031,5.0019531 15.001953,5.7109375 15.792969,6.5 14.71875,7.5742188 C 13.700098,6.7020862 12.413238,6.1343845 11,6.0253906 V 4 h 3 V 3 Z"
      class="ColorScheme-Text"/>
</svg>
