<svg xmlns="http://www.w3.org/2000/svg" height="16" width="16">
    <path fill="#fff" fill-opacity=".502" d="M.5 2.554h14.853v10.87H.5z"/>
    <path d="M1.002 3.053v9.926h13.926V3.052H1.002zm1.02.97h1.7v1.7h-1.7v-1.7zm3.472 0h1.7v1.7h-1.7v-1.7zm3.47 0h1.702v1.7h-1.7v-1.7zm3.473 0h1.7v1.7h-1.7v-1.7zM2.036 10.25h1.7v1.7h-1.7v-1.7zm3.473 0h1.7v1.7h-1.7v-1.7zm3.47 0h1.702v1.7h-1.7v-1.7zm3.473 0h1.7v1.7h-1.7v-1.7z" fill="#4d4d4d"/>
    <path d="M.622 13.3L15.34 2.58" fill="none" stroke="#b80000" stroke-width="1.6"/>
</svg>
