<svg height="127.99999" viewBox="0 0 33.866671 33.866665" width="128.00002" xmlns="http://www.w3.org/2000/svg"><g transform="matrix(.17418873 0 0 .17418873 -165.541757 279.26398)"><g fill="#83b9f5" fill-rule="evenodd" transform="matrix(1.0048356 0 0 1.0048356 -4.816092 7.011219)"><path d="m1024.0723-1553.3262v7.5h10.3086v-7.5z"/><path d="m1015.9238-1541.2715v7.5h18.4571v-7.5z"/><path d="m994.25586-1529.2148v7.5h40.12504v-7.5z"/><path d="m972.14844-1517.1602v7.5h62.23246v-7.5z"/><path d="m957.5625-1505.1035v7.5h76.8184v-7.5z"/><path d="m981.85742-1493.0488v7.5h52.52348v-7.5z"/><path d="m1003.2227-1480.9941v7.5h31.1582v-7.5z"/><path d="m994.78125-1468.9375v7.5h39.59965v-7.5z"/><path d="m1015.2461-1457.4258v7.5h19.1348v-7.5z"/></g><g fill="#f38577" transform="matrix(-3.5139599 0 0 3.5139599 1727.6665 -3255.5496)"><path d="m188.32192 478.62102h9.27502l-4.63751 7.09692z"/><path d="m192.36328 479.92773v37.21431h1.19336v-37.21431z" fill-rule="evenodd"/></g><path d="m1067.1502-1553.8776c-1.5308-.043-2.795 1.1863-2.7946 2.7177v98.6917c.001 2.2199 2.5193 3.5021 4.3153 2.1974l67.9725-49.3445c1.4962-1.0852 1.4962-3.315 0-4.4002l-67.9725-49.3446c-.4432-.3217-.9732-.5022-1.5207-.5175z" fill="#527eb2"/></g></svg>